<svg width="462" height="80" viewBox="0 0 462 80" fill="none" xmlns="http://www.w3.org/2000/svg">
<path d="M112.233 30.865C109.125 31.285 106.325 32.363 103.833 34.099C101.341 35.807 99.3806 37.977 97.9526 40.609C96.5526 43.213 95.8526 46.041 95.8526 49.093C95.8526 51.641 96.3426 53.657 97.3226 55.141C98.3026 56.625 99.5906 57.367 101.187 57.367C102.755 57.367 104.253 56.289 105.681 54.133C107.137 51.949 108.299 49.107 109.167 45.607C110.063 42.079 110.511 38.411 110.511 34.603L114.459 33.049V55.057C114.459 55.841 114.627 56.471 114.963 56.947C115.299 57.423 115.761 57.661 116.349 57.661C116.797 57.661 117.259 57.521 117.735 57.241C118.211 56.933 118.575 56.569 118.827 56.149L119.415 56.695C119.023 57.563 118.421 58.291 117.609 58.879C116.797 59.467 115.873 59.761 114.837 59.761C113.549 59.761 112.499 59.313 111.687 58.417C110.903 57.521 110.511 56.247 110.511 54.595V46.573H110.301C108.285 55.533 104.869 60.013 100.053 60.013C97.5606 60.013 95.5586 59.145 94.0466 57.409C92.5346 55.645 91.7786 53.237 91.7786 50.185C91.7786 46.685 92.7026 43.395 94.5506 40.315C96.3986 37.235 98.8906 34.729 102.027 32.797C105.163 30.865 108.565 29.815 112.233 29.647V30.865ZM132.328 38.551C133.7 38.551 134.988 38.845 136.192 39.433C137.424 40.021 138.32 40.917 138.88 42.121L135.856 43.759C135.408 43.115 134.792 42.541 134.008 42.037C133.224 41.505 132.384 41.239 131.488 41.239C130.06 41.239 128.814 41.617 127.75 42.373C126.686 43.101 125.874 44.095 125.314 45.355C124.754 46.615 124.474 48.015 124.474 49.555C124.474 51.767 124.852 53.573 125.608 54.973C126.364 56.345 127.554 57.031 129.178 57.031C131.474 57.031 133.056 56.107 133.924 54.259C134.792 52.411 135.226 50.395 135.226 48.211V46.321L138.922 44.767V55.813C138.922 56.177 139.02 56.527 139.216 56.863C139.412 57.199 139.706 57.367 140.098 57.367C140.91 57.367 141.652 56.807 142.324 55.687L142.954 56.359C142.618 57.311 142.03 58.123 141.19 58.795C140.35 59.439 139.51 59.761 138.67 59.761C137.466 59.761 136.57 59.313 135.982 58.417C135.422 57.521 135.142 56.331 135.142 54.847H135.058C134.358 56.331 133.406 57.577 132.202 58.585C131.026 59.565 129.78 60.055 128.464 60.055C126.084 60.055 124.278 59.243 123.046 57.619C121.842 55.967 121.24 53.769 121.24 51.025C121.24 48.841 121.73 46.797 122.71 44.893C123.69 42.961 125.02 41.421 126.7 40.273C128.408 39.125 130.284 38.551 132.328 38.551ZM150.774 50.605H150.942C151.222 49.065 151.712 47.343 152.412 45.439C153.14 43.507 154.106 41.813 155.31 40.357C156.514 38.901 157.928 38.173 159.552 38.173C160.42 38.173 161.05 38.495 161.442 39.139C161.862 39.755 162.1 40.455 162.156 41.239C162.24 42.023 162.282 43.059 162.282 44.347V56.023C162.282 56.359 162.38 56.681 162.576 56.989C162.8 57.297 163.136 57.451 163.584 57.451C164.312 57.451 165.054 56.905 165.81 55.813L166.314 56.443C165.922 57.367 165.292 58.151 164.424 58.795C163.584 59.439 162.73 59.761 161.862 59.761C159.678 59.761 158.586 58.347 158.586 55.519V44.389C158.586 44.025 158.502 43.689 158.334 43.381C158.194 43.073 157.942 42.919 157.578 42.919C156.15 42.919 154.918 44.039 153.882 46.279C152.846 48.491 152.048 50.941 151.488 53.629C150.928 56.289 150.648 58.095 150.648 59.047L146.91 60.139V22.339L150.774 20.743V50.605ZM180.234 38.551C181.606 38.551 182.894 38.845 184.098 39.433C185.33 40.021 186.226 40.917 186.786 42.121L183.762 43.759C183.314 43.115 182.698 42.541 181.914 42.037C181.13 41.505 180.29 41.239 179.394 41.239C177.966 41.239 176.72 41.617 175.656 42.373C174.592 43.101 173.78 44.095 173.22 45.355C172.66 46.615 172.38 48.015 172.38 49.555C172.38 51.767 172.758 53.573 173.514 54.973C174.27 56.345 175.46 57.031 177.084 57.031C179.38 57.031 180.962 56.107 181.83 54.259C182.698 52.411 183.132 50.395 183.132 48.211V46.321L186.828 44.767V55.813C186.828 56.177 186.926 56.527 187.122 56.863C187.318 57.199 187.612 57.367 188.004 57.367C188.816 57.367 189.558 56.807 190.23 55.687L190.86 56.359C190.524 57.311 189.936 58.123 189.096 58.795C188.256 59.439 187.416 59.761 186.576 59.761C185.372 59.761 184.476 59.313 183.888 58.417C183.328 57.521 183.048 56.331 183.048 54.847H182.964C182.264 56.331 181.312 57.577 180.108 58.585C178.932 59.565 177.686 60.055 176.37 60.055C173.99 60.055 172.184 59.243 170.952 57.619C169.748 55.967 169.146 53.769 169.146 51.025C169.146 48.841 169.636 46.797 170.616 44.893C171.596 42.961 172.926 41.421 174.606 40.273C176.314 39.125 178.19 38.551 180.234 38.551ZM209.432 38.173C210.552 38.173 211.28 38.593 211.616 39.433C211.952 40.245 212.12 41.379 212.12 42.835V44.137V56.023C212.12 56.331 212.218 56.653 212.414 56.989C212.61 57.297 212.89 57.451 213.254 57.451C213.73 57.451 214.136 57.297 214.472 56.989C214.808 56.681 215.144 56.289 215.48 55.813L216.11 56.443C215.69 57.339 215.06 58.123 214.22 58.795C213.38 59.439 212.582 59.761 211.826 59.761C210.706 59.761 209.838 59.411 209.222 58.711C208.606 58.011 208.298 56.947 208.298 55.519V44.389C208.298 43.969 208.256 43.619 208.172 43.339C208.088 43.059 207.878 42.919 207.542 42.919C206.394 42.919 205.218 44.025 204.014 46.237C202.81 48.449 201.774 50.927 200.906 53.671C200.066 56.387 199.646 58.179 199.646 59.047L195.992 60.139V42.163C195.992 41.771 195.88 41.421 195.656 41.113C195.46 40.777 195.166 40.609 194.774 40.609C194.102 40.609 193.374 41.211 192.59 42.415L191.96 41.743C192.324 40.735 192.926 39.895 193.766 39.223C194.606 38.523 195.446 38.173 196.286 38.173C197.462 38.173 198.33 38.453 198.89 39.013C199.478 39.573 199.772 40.343 199.772 41.323V52.369H199.94C200.696 49.877 201.424 47.707 202.124 45.859C202.824 44.011 203.804 42.275 205.064 40.651C206.324 38.999 207.78 38.173 209.432 38.173ZM233.676 28.891V39.853C234.264 37.529 235.076 35.555 236.112 33.931C237.148 32.279 238.268 31.047 239.472 30.235C240.676 29.395 241.796 28.975 242.832 28.975C243.896 28.975 244.694 29.339 245.226 30.067C245.758 30.795 246.024 31.761 246.024 32.965V39.811C246.612 37.487 247.424 35.513 248.46 33.889C249.496 32.265 250.602 31.047 251.778 30.235C252.982 29.395 254.116 28.975 255.18 28.975C256.244 28.975 257.042 29.339 257.574 30.067C258.106 30.767 258.372 31.733 258.372 32.965V55.057C258.372 55.841 258.54 56.471 258.876 56.947C259.212 57.423 259.674 57.661 260.262 57.661C260.71 57.661 261.158 57.521 261.606 57.241C262.082 56.933 262.474 56.569 262.782 56.149L263.37 56.695C262.978 57.563 262.376 58.291 261.564 58.879C260.78 59.467 259.842 59.761 258.75 59.761C257.49 59.761 256.468 59.327 255.684 58.459C254.9 57.563 254.508 56.275 254.508 54.595V34.057C254.508 33.413 254.382 32.923 254.13 32.587C253.878 32.223 253.542 32.041 253.122 32.041C252.254 32.041 251.246 32.713 250.098 34.057C248.978 35.401 248.012 37.249 247.2 39.601C246.388 41.953 245.982 44.571 245.982 47.455V58.753L242.118 60.139V34.057C242.118 33.413 242.006 32.923 241.782 32.587C241.558 32.223 241.25 32.041 240.858 32.041C239.99 32.041 238.982 32.713 237.834 34.057C236.686 35.401 235.706 37.249 234.894 39.601C234.082 41.953 233.676 44.571 233.676 47.455V58.753L229.77 60.139V30.403L233.676 28.891ZM276.169 38.551C277.541 38.551 278.829 38.845 280.033 39.433C281.265 40.021 282.161 40.917 282.721 42.121L279.697 43.759C279.249 43.115 278.633 42.541 277.849 42.037C277.065 41.505 276.225 41.239 275.329 41.239C273.901 41.239 272.655 41.617 271.591 42.373C270.527 43.101 269.715 44.095 269.155 45.355C268.595 46.615 268.315 48.015 268.315 49.555C268.315 51.767 268.693 53.573 269.449 54.973C270.205 56.345 271.395 57.031 273.019 57.031C275.315 57.031 276.897 56.107 277.765 54.259C278.633 52.411 279.067 50.395 279.067 48.211V46.321L282.763 44.767V55.813C282.763 56.177 282.861 56.527 283.057 56.863C283.253 57.199 283.547 57.367 283.939 57.367C284.751 57.367 285.493 56.807 286.165 55.687L286.795 56.359C286.459 57.311 285.871 58.123 285.031 58.795C284.191 59.439 283.351 59.761 282.511 59.761C281.307 59.761 280.411 59.313 279.823 58.417C279.263 57.521 278.983 56.331 278.983 54.847H278.899C278.199 56.331 277.247 57.577 276.043 58.585C274.867 59.565 273.621 60.055 272.305 60.055C269.925 60.055 268.119 59.243 266.887 57.619C265.683 55.967 265.081 53.769 265.081 51.025C265.081 48.841 265.571 46.797 266.551 44.893C267.531 42.961 268.861 41.421 270.541 40.273C272.249 39.125 274.125 38.551 276.169 38.551ZM294.826 56.023C294.826 56.359 294.924 56.681 295.12 56.989C295.316 57.297 295.652 57.451 296.128 57.451C296.52 57.451 296.926 57.283 297.346 56.947C297.794 56.583 298.13 56.205 298.354 55.813L299.068 56.443C298.592 57.367 297.934 58.151 297.094 58.795C296.254 59.439 295.414 59.761 294.574 59.761C292.222 59.761 291.046 58.347 291.046 55.519V22.339L294.826 20.743V56.023ZM307.166 50.605H307.334C307.614 49.065 308.104 47.343 308.804 45.439C309.532 43.507 310.498 41.813 311.702 40.357C312.906 38.901 314.32 38.173 315.944 38.173C316.812 38.173 317.442 38.495 317.834 39.139C318.254 39.755 318.492 40.455 318.548 41.239C318.632 42.023 318.674 43.059 318.674 44.347V56.023C318.674 56.359 318.772 56.681 318.968 56.989C319.192 57.297 319.528 57.451 319.976 57.451C320.704 57.451 321.446 56.905 322.202 55.813L322.706 56.443C322.314 57.367 321.684 58.151 320.816 58.795C319.976 59.439 319.122 59.761 318.254 59.761C316.07 59.761 314.978 58.347 314.978 55.519V44.389C314.978 44.025 314.894 43.689 314.726 43.381C314.586 43.073 314.334 42.919 313.97 42.919C312.542 42.919 311.31 44.039 310.274 46.279C309.238 48.491 308.44 50.941 307.88 53.629C307.32 56.289 307.04 58.095 307.04 59.047L303.302 60.139V22.339L307.166 20.743V50.605ZM335.912 39.055C333.812 40.399 332.16 41.897 330.956 43.549C329.752 45.201 329.15 47.147 329.15 49.387C329.15 50.647 329.416 51.921 329.948 53.209C330.48 54.469 331.278 55.519 332.342 56.359C333.406 57.199 334.68 57.619 336.164 57.619C337.368 57.619 338.432 57.339 339.356 56.779C340.308 56.219 341.036 55.463 341.54 54.511C342.072 53.559 342.338 52.509 342.338 51.361C342.338 50.045 341.932 48.701 341.12 47.329C340.336 45.957 339.3 44.795 338.012 43.843C336.724 42.891 335.408 42.359 334.064 42.247C334.624 41.687 335.296 41.099 336.08 40.483C336.864 39.867 337.662 39.265 338.474 38.677C340.406 39.321 341.932 40.553 343.052 42.373C344.172 44.165 344.732 46.167 344.732 48.379C344.732 50.339 344.326 52.229 343.514 54.049C342.73 55.841 341.568 57.311 340.028 58.459C338.488 59.579 336.668 60.139 334.568 60.139C332.888 60.139 331.334 59.733 329.906 58.921C328.506 58.081 327.4 56.947 326.588 55.519C325.776 54.091 325.37 52.509 325.37 50.773C325.37 47.721 326.266 45.075 328.058 42.835C329.878 40.595 332.244 39.041 335.156 38.173L335.912 39.055ZM354.678 38.551H360.516L359.256 41.239H354.678V56.023C354.678 56.443 354.804 56.793 355.056 57.073C355.308 57.325 355.644 57.451 356.064 57.451C356.652 57.451 357.464 56.905 358.5 55.813L359.088 56.443C358.556 57.507 357.912 58.305 357.156 58.837C356.428 59.341 355.728 59.649 355.056 59.761C354.412 59.901 354.09 59.915 354.09 59.803C354.118 59.803 354.16 59.789 354.216 59.761C354.272 59.761 354.356 59.761 354.468 59.761C352.004 59.761 350.772 58.347 350.772 55.519V41.239H347.622L348.924 38.551H350.772V28.891L354.678 27.379V38.551ZM372.684 43.675C371.424 44.991 370.332 46.713 369.408 48.841C368.512 50.941 368.064 52.859 368.064 54.595C368.064 56.107 368.386 57.381 369.03 58.417C369.702 59.425 370.766 59.929 372.222 59.929C373.398 59.929 374.518 59.621 375.582 59.005C376.674 58.389 377.598 57.591 378.354 56.611L377.892 55.981C377.024 56.569 376.17 56.863 375.33 56.863C374.014 56.863 373.02 56.401 372.348 55.477C371.676 54.553 371.34 53.433 371.34 52.117C371.34 49.989 371.886 47.973 372.978 46.069C374.07 44.165 375.456 42.317 377.136 40.525L376.464 39.937C374.504 41.169 372.712 41.785 371.088 41.785C370.136 41.785 369.268 41.365 368.484 40.525C367.7 39.657 367.098 38.705 366.678 37.669L363.276 41.491C363.472 42.051 364.004 42.695 364.872 43.423L362.058 49.303L363.612 50.017L366.342 44.011C366.818 44.207 367.21 44.333 367.518 44.389C367.826 44.445 368.246 44.473 368.778 44.473C370.15 44.473 371.41 44.165 372.558 43.549L372.684 43.675ZM392.736 38.551C394.108 38.551 395.396 38.845 396.6 39.433C397.832 40.021 398.728 40.917 399.288 42.121L396.264 43.759C395.816 43.115 395.2 42.541 394.416 42.037C393.632 41.505 392.792 41.239 391.896 41.239C390.468 41.239 389.222 41.617 388.158 42.373C387.094 43.101 386.282 44.095 385.722 45.355C385.162 46.615 384.882 48.015 384.882 49.555C384.882 51.767 385.26 53.573 386.016 54.973C386.772 56.345 387.962 57.031 389.586 57.031C391.882 57.031 393.464 56.107 394.332 54.259C395.2 52.411 395.634 50.395 395.634 48.211V46.321L399.33 44.767V55.813C399.33 56.177 399.428 56.527 399.624 56.863C399.82 57.199 400.114 57.367 400.506 57.367C401.318 57.367 402.06 56.807 402.732 55.687L403.362 56.359C403.026 57.311 402.438 58.123 401.598 58.795C400.758 59.439 399.918 59.761 399.078 59.761C397.874 59.761 396.978 59.313 396.39 58.417C395.83 57.521 395.55 56.331 395.55 54.847H395.466C394.766 56.331 393.814 57.577 392.61 58.585C391.434 59.565 390.188 60.055 388.872 60.055C386.492 60.055 384.686 59.243 383.454 57.619C382.25 55.967 381.648 53.769 381.648 51.025C381.648 48.841 382.138 46.797 383.118 44.893C384.098 42.961 385.428 41.421 387.108 40.273C388.816 39.125 390.692 38.551 392.736 38.551Z" fill="#282828"/>
<path d="M3 40H11.2222M68.7778 40H77M40 3V11.2222M40 68.7778V77M11.2223 11.2223L19.4445 19.4445M60.5555 60.5555L68.7778 68.7778M11.2225 68.7777L19.4447 60.5555M60.5553 19.4444L68.7775 11.2221M52.3333 40C52.3333 46.8115 46.8115 52.3333 40 52.3333C33.1885 52.3333 27.6667 46.8115 27.6667 40C27.6667 33.1885 33.1885 27.6667 40 27.6667C46.8115 27.6667 52.3333 33.1885 52.3333 40Z" stroke="#FF7A00" stroke-width="5" stroke-linecap="round" stroke-linejoin="round"/>
</svg>
