<svg width="405" height="80" viewBox="0 0 405 80" fill="none" xmlns="http://www.w3.org/2000/svg">
<path d="M112.008 31.314C108.9 31.734 106.1 32.812 103.608 34.548C101.116 36.256 99.156 38.426 97.728 41.058C96.328 43.662 95.628 46.49 95.628 49.542C95.628 52.09 96.118 54.106 97.098 55.59C98.078 57.074 99.366 57.816 100.962 57.816C102.53 57.816 104.028 56.738 105.456 54.582C106.912 52.398 108.074 49.556 108.942 46.056C109.838 42.528 110.286 38.86 110.286 35.052L114.234 33.498V55.506C114.234 56.29 114.402 56.92 114.738 57.396C115.074 57.872 115.536 58.11 116.124 58.11C116.572 58.11 117.034 57.97 117.51 57.69C117.986 57.382 118.35 57.018 118.602 56.598L119.19 57.144C118.798 58.012 118.196 58.74 117.384 59.328C116.572 59.916 115.648 60.21 114.612 60.21C113.324 60.21 112.274 59.762 111.462 58.866C110.678 57.97 110.286 56.696 110.286 55.044V47.022H110.076C108.06 55.982 104.644 60.462 99.828 60.462C97.336 60.462 95.334 59.594 93.822 57.858C92.31 56.094 91.554 53.686 91.554 50.634C91.554 47.134 92.478 43.844 94.326 40.764C96.174 37.684 98.666 35.178 101.802 33.246C104.938 31.314 108.34 30.264 112.008 30.096V31.314ZM132.103 39C133.475 39 134.763 39.294 135.967 39.882C137.199 40.47 138.095 41.366 138.655 42.57L135.631 44.208C135.183 43.564 134.567 42.99 133.783 42.486C132.999 41.954 132.159 41.688 131.263 41.688C129.835 41.688 128.589 42.066 127.525 42.822C126.461 43.55 125.649 44.544 125.089 45.804C124.529 47.064 124.249 48.464 124.249 50.004C124.249 52.216 124.627 54.022 125.383 55.422C126.139 56.794 127.329 57.48 128.953 57.48C131.249 57.48 132.831 56.556 133.699 54.708C134.567 52.86 135.001 50.844 135.001 48.66V46.77L138.697 45.216V56.262C138.697 56.626 138.795 56.976 138.991 57.312C139.187 57.648 139.481 57.816 139.873 57.816C140.685 57.816 141.427 57.256 142.099 56.136L142.729 56.808C142.393 57.76 141.805 58.572 140.965 59.244C140.125 59.888 139.285 60.21 138.445 60.21C137.241 60.21 136.345 59.762 135.757 58.866C135.197 57.97 134.917 56.78 134.917 55.296H134.833C134.133 56.78 133.181 58.026 131.977 59.034C130.801 60.014 129.555 60.504 128.239 60.504C125.859 60.504 124.053 59.692 122.821 58.068C121.617 56.416 121.015 54.218 121.015 51.474C121.015 49.29 121.505 47.246 122.485 45.342C123.465 43.41 124.795 41.87 126.475 40.722C128.183 39.574 130.059 39 132.103 39ZM150.549 51.054H150.717C150.997 49.514 151.487 47.792 152.187 45.888C152.915 43.956 153.881 42.262 155.085 40.806C156.289 39.35 157.703 38.622 159.327 38.622C160.195 38.622 160.825 38.944 161.217 39.588C161.637 40.204 161.875 40.904 161.931 41.688C162.015 42.472 162.057 43.508 162.057 44.796V56.472C162.057 56.808 162.155 57.13 162.351 57.438C162.575 57.746 162.911 57.9 163.359 57.9C164.087 57.9 164.829 57.354 165.585 56.262L166.089 56.892C165.697 57.816 165.067 58.6 164.199 59.244C163.359 59.888 162.505 60.21 161.637 60.21C159.453 60.21 158.361 58.796 158.361 55.968V44.838C158.361 44.474 158.277 44.138 158.109 43.83C157.969 43.522 157.717 43.368 157.353 43.368C155.925 43.368 154.693 44.488 153.657 46.728C152.621 48.94 151.823 51.39 151.263 54.078C150.703 56.738 150.423 58.544 150.423 59.496L146.685 60.588V22.788L150.549 21.192V51.054ZM180.009 39C181.381 39 182.669 39.294 183.873 39.882C185.105 40.47 186.001 41.366 186.561 42.57L183.537 44.208C183.089 43.564 182.473 42.99 181.689 42.486C180.905 41.954 180.065 41.688 179.169 41.688C177.741 41.688 176.495 42.066 175.431 42.822C174.367 43.55 173.555 44.544 172.995 45.804C172.435 47.064 172.155 48.464 172.155 50.004C172.155 52.216 172.533 54.022 173.289 55.422C174.045 56.794 175.235 57.48 176.859 57.48C179.155 57.48 180.737 56.556 181.605 54.708C182.473 52.86 182.907 50.844 182.907 48.66V46.77L186.603 45.216V56.262C186.603 56.626 186.701 56.976 186.897 57.312C187.093 57.648 187.387 57.816 187.779 57.816C188.591 57.816 189.333 57.256 190.005 56.136L190.635 56.808C190.299 57.76 189.711 58.572 188.871 59.244C188.031 59.888 187.191 60.21 186.351 60.21C185.147 60.21 184.251 59.762 183.663 58.866C183.103 57.97 182.823 56.78 182.823 55.296H182.739C182.039 56.78 181.087 58.026 179.883 59.034C178.707 60.014 177.461 60.504 176.145 60.504C173.765 60.504 171.959 59.692 170.727 58.068C169.523 56.416 168.921 54.218 168.921 51.474C168.921 49.29 169.411 47.246 170.391 45.342C171.371 43.41 172.701 41.87 174.381 40.722C176.089 39.574 177.965 39 180.009 39ZM209.207 38.622C210.327 38.622 211.055 39.042 211.391 39.882C211.727 40.694 211.895 41.828 211.895 43.284V44.586V56.472C211.895 56.78 211.993 57.102 212.189 57.438C212.385 57.746 212.665 57.9 213.029 57.9C213.505 57.9 213.911 57.746 214.247 57.438C214.583 57.13 214.919 56.738 215.255 56.262L215.885 56.892C215.465 57.788 214.835 58.572 213.995 59.244C213.155 59.888 212.357 60.21 211.601 60.21C210.481 60.21 209.613 59.86 208.997 59.16C208.381 58.46 208.073 57.396 208.073 55.968V44.838C208.073 44.418 208.031 44.068 207.947 43.788C207.863 43.508 207.653 43.368 207.317 43.368C206.169 43.368 204.993 44.474 203.789 46.686C202.585 48.898 201.549 51.376 200.681 54.12C199.841 56.836 199.421 58.628 199.421 59.496L195.767 60.588V42.612C195.767 42.22 195.655 41.87 195.431 41.562C195.235 41.226 194.941 41.058 194.549 41.058C193.877 41.058 193.149 41.66 192.365 42.864L191.735 42.192C192.099 41.184 192.701 40.344 193.541 39.672C194.381 38.972 195.221 38.622 196.061 38.622C197.237 38.622 198.105 38.902 198.665 39.462C199.253 40.022 199.547 40.792 199.547 41.772V52.818H199.715C200.471 50.326 201.199 48.156 201.899 46.308C202.599 44.46 203.579 42.724 204.839 41.1C206.099 39.448 207.555 38.622 209.207 38.622ZM233.452 29.34V40.302C234.04 37.978 234.852 36.004 235.888 34.38C236.924 32.728 238.044 31.496 239.248 30.684C240.452 29.844 241.572 29.424 242.608 29.424C243.672 29.424 244.47 29.788 245.002 30.516C245.534 31.244 245.8 32.21 245.8 33.414V40.26C246.388 37.936 247.2 35.962 248.236 34.338C249.272 32.714 250.378 31.496 251.554 30.684C252.758 29.844 253.892 29.424 254.956 29.424C256.02 29.424 256.818 29.788 257.35 30.516C257.882 31.216 258.148 32.182 258.148 33.414V55.506C258.148 56.29 258.316 56.92 258.652 57.396C258.988 57.872 259.45 58.11 260.038 58.11C260.486 58.11 260.934 57.97 261.382 57.69C261.858 57.382 262.25 57.018 262.558 56.598L263.146 57.144C262.754 58.012 262.152 58.74 261.34 59.328C260.556 59.916 259.618 60.21 258.526 60.21C257.266 60.21 256.244 59.776 255.46 58.908C254.676 58.012 254.284 56.724 254.284 55.044V34.506C254.284 33.862 254.158 33.372 253.906 33.036C253.654 32.672 253.318 32.49 252.898 32.49C252.03 32.49 251.022 33.162 249.874 34.506C248.754 35.85 247.788 37.698 246.976 40.05C246.164 42.402 245.758 45.02 245.758 47.904V59.202L241.894 60.588V34.506C241.894 33.862 241.782 33.372 241.558 33.036C241.334 32.672 241.026 32.49 240.634 32.49C239.766 32.49 238.758 33.162 237.61 34.506C236.462 35.85 235.482 37.698 234.67 40.05C233.858 42.402 233.452 45.02 233.452 47.904V59.202L229.546 60.588V30.852L233.452 29.34ZM275.945 39C277.317 39 278.605 39.294 279.809 39.882C281.041 40.47 281.937 41.366 282.497 42.57L279.473 44.208C279.025 43.564 278.409 42.99 277.625 42.486C276.841 41.954 276.001 41.688 275.105 41.688C273.677 41.688 272.431 42.066 271.367 42.822C270.303 43.55 269.491 44.544 268.931 45.804C268.371 47.064 268.091 48.464 268.091 50.004C268.091 52.216 268.469 54.022 269.225 55.422C269.981 56.794 271.171 57.48 272.795 57.48C275.091 57.48 276.673 56.556 277.541 54.708C278.409 52.86 278.843 50.844 278.843 48.66V46.77L282.539 45.216V56.262C282.539 56.626 282.637 56.976 282.833 57.312C283.029 57.648 283.323 57.816 283.715 57.816C284.527 57.816 285.269 57.256 285.941 56.136L286.571 56.808C286.235 57.76 285.647 58.572 284.807 59.244C283.967 59.888 283.127 60.21 282.287 60.21C281.083 60.21 280.187 59.762 279.599 58.866C279.039 57.97 278.759 56.78 278.759 55.296H278.675C277.975 56.78 277.023 58.026 275.819 59.034C274.643 60.014 273.397 60.504 272.081 60.504C269.701 60.504 267.895 59.692 266.663 58.068C265.459 56.416 264.857 54.218 264.857 51.474C264.857 49.29 265.347 47.246 266.327 45.342C267.307 43.41 268.637 41.87 270.317 40.722C272.025 39.574 273.901 39 275.945 39ZM294.601 56.472C294.601 56.808 294.699 57.13 294.895 57.438C295.091 57.746 295.427 57.9 295.903 57.9C296.295 57.9 296.701 57.732 297.121 57.396C297.569 57.032 297.905 56.654 298.129 56.262L298.843 56.892C298.367 57.816 297.709 58.6 296.869 59.244C296.029 59.888 295.189 60.21 294.349 60.21C291.997 60.21 290.821 58.796 290.821 55.968V22.788L294.601 21.192V56.472ZM306.942 51.054H307.11C307.39 49.514 307.88 47.792 308.58 45.888C309.308 43.956 310.274 42.262 311.478 40.806C312.682 39.35 314.096 38.622 315.72 38.622C316.588 38.622 317.218 38.944 317.61 39.588C318.03 40.204 318.268 40.904 318.324 41.688C318.408 42.472 318.45 43.508 318.45 44.796V56.472C318.45 56.808 318.548 57.13 318.744 57.438C318.968 57.746 319.304 57.9 319.752 57.9C320.48 57.9 321.222 57.354 321.978 56.262L322.482 56.892C322.09 57.816 321.46 58.6 320.592 59.244C319.752 59.888 318.898 60.21 318.03 60.21C315.846 60.21 314.754 58.796 314.754 55.968V44.838C314.754 44.474 314.67 44.138 314.502 43.83C314.362 43.522 314.11 43.368 313.746 43.368C312.318 43.368 311.086 44.488 310.05 46.728C309.014 48.94 308.216 51.39 307.656 54.078C307.096 56.738 306.816 58.544 306.816 59.496L303.078 60.588V22.788L306.942 21.192V51.054ZM335.688 39.504C333.588 40.848 331.936 42.346 330.732 43.998C329.528 45.65 328.926 47.596 328.926 49.836C328.926 51.096 329.192 52.37 329.724 53.658C330.256 54.918 331.054 55.968 332.118 56.808C333.182 57.648 334.456 58.068 335.94 58.068C337.144 58.068 338.208 57.788 339.132 57.228C340.084 56.668 340.812 55.912 341.316 54.96C341.848 54.008 342.114 52.958 342.114 51.81C342.114 50.494 341.708 49.15 340.896 47.778C340.112 46.406 339.076 45.244 337.788 44.292C336.5 43.34 335.184 42.808 333.84 42.696C334.4 42.136 335.072 41.548 335.856 40.932C336.64 40.316 337.438 39.714 338.25 39.126C340.182 39.77 341.708 41.002 342.828 42.822C343.948 44.614 344.508 46.616 344.508 48.828C344.508 50.788 344.102 52.678 343.29 54.498C342.506 56.29 341.344 57.76 339.804 58.908C338.264 60.028 336.444 60.588 334.344 60.588C332.664 60.588 331.11 60.182 329.682 59.37C328.282 58.53 327.176 57.396 326.364 55.968C325.552 54.54 325.146 52.958 325.146 51.222C325.146 48.17 326.042 45.524 327.834 43.284C329.654 41.044 332.02 39.49 334.932 38.622L335.688 39.504ZM354.454 39H360.292L359.032 41.688H354.454V56.472C354.454 56.892 354.58 57.242 354.832 57.522C355.084 57.774 355.42 57.9 355.84 57.9C356.428 57.9 357.24 57.354 358.276 56.262L358.864 56.892C358.332 57.956 357.688 58.754 356.932 59.286C356.204 59.79 355.504 60.098 354.832 60.21C354.188 60.35 353.866 60.364 353.866 60.252C353.894 60.252 353.936 60.238 353.992 60.21C354.048 60.21 354.132 60.21 354.244 60.21C351.78 60.21 350.548 58.796 350.548 55.968V41.688H347.398L348.7 39H350.548V29.34L354.454 27.828V39ZM372.459 44.124C371.199 45.44 370.107 47.162 369.183 49.29C368.287 51.39 367.839 53.308 367.839 55.044C367.839 56.556 368.161 57.83 368.805 58.866C369.477 59.874 370.541 60.378 371.997 60.378C373.173 60.378 374.293 60.07 375.357 59.454C376.449 58.838 377.373 58.04 378.129 57.06L377.667 56.43C376.799 57.018 375.945 57.312 375.105 57.312C373.789 57.312 372.795 56.85 372.123 55.926C371.451 55.002 371.115 53.882 371.115 52.566C371.115 50.438 371.661 48.422 372.753 46.518C373.845 44.614 375.231 42.766 376.911 40.974L376.239 40.386C374.279 41.618 372.487 42.234 370.863 42.234C369.911 42.234 369.043 41.814 368.259 40.974C367.475 40.106 366.873 39.154 366.453 38.118L363.051 41.94C363.247 42.5 363.779 43.144 364.647 43.872L361.833 49.752L363.387 50.466L366.117 44.46C366.593 44.656 366.985 44.782 367.293 44.838C367.601 44.894 368.021 44.922 368.553 44.922C369.925 44.922 371.185 44.614 372.333 43.998L372.459 44.124ZM392.511 39C393.883 39 395.171 39.294 396.375 39.882C397.607 40.47 398.503 41.366 399.063 42.57L396.039 44.208C395.591 43.564 394.975 42.99 394.191 42.486C393.407 41.954 392.567 41.688 391.671 41.688C390.243 41.688 388.997 42.066 387.933 42.822C386.869 43.55 386.057 44.544 385.497 45.804C384.937 47.064 384.657 48.464 384.657 50.004C384.657 52.216 385.035 54.022 385.791 55.422C386.547 56.794 387.737 57.48 389.361 57.48C391.657 57.48 393.239 56.556 394.107 54.708C394.975 52.86 395.409 50.844 395.409 48.66V46.77L399.105 45.216V56.262C399.105 56.626 399.203 56.976 399.399 57.312C399.595 57.648 399.889 57.816 400.281 57.816C401.093 57.816 401.835 57.256 402.507 56.136L403.137 56.808C402.801 57.76 402.213 58.572 401.373 59.244C400.533 59.888 399.693 60.21 398.853 60.21C397.649 60.21 396.753 59.762 396.165 58.866C395.605 57.97 395.325 56.78 395.325 55.296H395.241C394.541 56.78 393.589 58.026 392.385 59.034C391.209 60.014 389.963 60.504 388.647 60.504C386.267 60.504 384.461 59.692 383.229 58.068C382.025 56.416 381.423 54.218 381.423 51.474C381.423 49.29 381.913 47.246 382.893 45.342C383.873 43.41 385.203 41.87 386.883 40.722C388.591 39.574 390.467 39 392.511 39Z" fill="white"/>
<path d="M52.3333 40C52.3333 46.8115 46.8115 52.3333 40 52.3333C33.1885 52.3333 27.6667 46.8115 27.6667 40C27.6667 33.1885 33.1885 27.6667 40 27.6667C46.8115 27.6667 52.3333 33.1885 52.3333 40Z" fill="white"/>
<path d="M3 40H11.2222M68.7778 40H77M40 3V11.2222M40 68.7778V77M11.2223 11.2223L19.4445 19.4445M60.5555 60.5555L68.7778 68.7778M11.2225 68.7777L19.4447 60.5555M60.5553 19.4444L68.7775 11.2221M52.3333 40C52.3333 46.8115 46.8115 52.3333 40 52.3333C33.1885 52.3333 27.6667 46.8115 27.6667 40C27.6667 33.1885 33.1885 27.6667 40 27.6667C46.8115 27.6667 52.3333 33.1885 52.3333 40Z" stroke="#FF7A00" stroke-width="5" stroke-linecap="round" stroke-linejoin="round"/>
</svg>
