<svg width="243" height="251" viewBox="0 0 243 251" fill="none" xmlns="http://www.w3.org/2000/svg">
<path fill-rule="evenodd" clip-rule="evenodd" d="M196.468 0.440536C189.643 1.55578 179.17 4.32644 173.956 6.39585C139.653 20.013 115.536 49.318 107.944 86.6089C105.873 96.7794 104.653 95.7405 118.667 95.7405H130.698L130.347 97.196C129.186 101.999 126.682 114.356 126.677 115.309C126.671 116.347 127.679 116.441 138.86 116.441H151.049L149.547 122.661C148.721 126.082 147.851 130.594 147.615 132.688L147.184 136.495H177.913H208.643L209.746 133.099C210.352 131.231 212.187 127.083 213.823 123.88C218.796 114.143 227.708 106.664 238.236 103.393L243 101.913V71.3713C243 54.574 242.782 40.6962 242.515 40.5312C241.811 40.0959 230.554 41.8554 226.683 43.0062C224.865 43.5464 223.139 43.9889 222.848 43.9889C222.557 43.9889 222.319 38.6216 222.319 32.0621V20.1353L219.896 20.4839C216.985 20.9031 205.783 23.1226 203.739 23.6854L202.285 24.0859V12.0432V0L200.184 0.0879777C199.029 0.136495 197.357 0.294984 196.468 0.440536ZM199.544 31.1512L199.376 59.7149L196.005 60.8612C186.415 64.1241 178.701 70.1584 172.918 78.9212C170.389 82.7541 166.739 90.7471 166.739 92.4549C166.739 92.944 158.121 93.1529 137.937 93.1529C110.809 93.1529 109.153 93.0869 109.466 92.0209C109.649 91.3979 109.984 89.7244 110.211 88.3012C111.471 80.4123 116.398 65.7375 120.519 57.5963C126.541 45.7019 139.268 30.8918 151.132 21.9744C158.472 16.4564 170.187 10.2766 179.242 7.14496C184.811 5.21915 195.316 2.72602 198.252 2.63351L199.713 2.58758L199.544 31.1512ZM240.415 71.7523V100.163L235.294 101.87C223.347 105.852 213.194 116.402 208.041 130.188L206.651 133.907H178.237H149.822L150.279 131.204C150.53 129.717 151.363 125.86 152.13 122.633L153.526 116.765L170.874 116.441L188.221 116.118L189.937 111.266C194.795 97.5253 204.665 87.6757 217.817 83.4424L222.319 81.9933V64.381V46.7686L226.358 45.685C231.598 44.28 235.696 43.5011 238.314 43.4131L240.415 43.342V71.7523ZM86.2779 45.6999C62.1343 50.6868 47.4574 58.1869 31.4304 73.728C14.6983 89.9527 4.29192 110.056 1.03146 132.452L0.630766 135.201H29.0747H57.5186V133.65C57.5186 132.797 58.8306 129.474 60.4346 126.267C65.4549 116.23 76.2309 106.361 86.1164 102.748L89.8324 101.389V73.3359C89.8324 42.5722 90.1323 44.9036 86.2779 45.6999ZM0 161.411C0 161.596 0.6075 164.553 1.35007 167.983C5.77642 188.435 15.7194 206.619 30.6678 221.603C34.95 225.896 40.9255 231.175 43.9468 233.334C51.3648 238.637 62.0871 244.064 70.3847 246.714C76.3324 248.614 79.6872 249.368 88.0552 250.684L89.8324 250.963V222.516C89.8324 198.473 89.6916 194.069 88.9218 194.069C88.4203 194.069 85.0035 192.566 81.3281 190.729C75.5704 187.851 73.839 186.574 68.8252 181.51C62.8349 175.459 59.0807 169.569 57.5535 163.826L56.8226 161.077H28.411C12.7853 161.077 0 161.228 0 161.411ZM148.646 162.209C148.647 162.832 147.173 166.315 145.37 169.951C142.443 175.851 141.445 177.172 136.079 182.242C130.34 187.666 126.021 190.41 117.816 193.841L115.475 194.82L115.912 222.702C116.153 238.037 116.497 250.731 116.677 250.912C117.262 251.497 128.557 249.048 134.643 247.016C155.539 240.04 174.626 225.568 187.788 206.722C191.603 201.259 197.913 189.065 200.33 182.485C202.119 177.612 203.966 170.343 205.153 163.503L205.575 161.077H177.109C150.429 161.077 148.644 161.148 148.646 162.209Z" fill="#302175"/>
</svg>
