<svg width="114" height="114" viewBox="0 0 114 114" fill="none" xmlns="http://www.w3.org/2000/svg">
<path d="M79.5707 0H33.7626C15.1458 0 0 15.1458 0 33.7626V79.5707C0 98.1875 15.1458 113.333 33.7626 113.333H79.5707C98.1875 113.333 113.333 98.1875 113.333 79.5707V33.7626C113.333 15.1458 98.1873 0 79.5707 0ZM101.932 79.5707C101.932 91.9204 91.9204 101.932 79.5707 101.932H33.7626C21.4129 101.932 11.4013 91.9204 11.4013 79.5707V33.7626C11.4013 21.4127 21.4129 11.4013 33.7626 11.4013H79.5707C91.9204 11.4013 101.932 21.4127 101.932 33.7626V79.5707Z" fill="white"/>
<path d="M56.6668 27.3545C40.5041 27.3545 27.3547 40.5038 27.3547 56.6663C27.3547 72.8288 40.5041 85.9783 56.6668 85.9783C72.8295 85.9783 85.9788 72.829 85.9788 56.6663C85.9788 40.5036 72.8295 27.3545 56.6668 27.3545ZM56.6668 74.5772C46.7749 74.5772 38.7561 66.5584 38.7561 56.6665C38.7561 46.7746 46.7751 38.7558 56.6668 38.7558C66.5587 38.7558 74.5775 46.7746 74.5775 56.6665C74.5775 66.5582 66.5585 74.5772 56.6668 74.5772Z" fill="white"/>
<path d="M86.0355 34.5986C89.9146 34.5986 93.0592 31.4539 93.0592 27.5748C93.0592 23.6957 89.9146 20.551 86.0355 20.551C82.1564 20.551 79.0117 23.6957 79.0117 27.5748C79.0117 31.4539 82.1564 34.5986 86.0355 34.5986Z" fill="white"/>
</svg>
