<svg width="119" height="113" viewBox="0 0 119 113" fill="none" xmlns="http://www.w3.org/2000/svg">
<path fill-rule="evenodd" clip-rule="evenodd" d="M28.5475 13.1695C28.5475 20.4902 23.037 26.3481 14.1889 26.3481H14.0267C5.5075 26.3481 0 20.4902 0 13.1695C0 5.69387 5.67524 0 14.3561 0C23.037 0 28.3828 5.69387 28.5475 13.1695ZM26.8762 36.7545V112.998H1.50055V36.7545H26.8762ZM118.39 112.998L118.391 69.2824C118.391 45.8637 105.872 34.9643 89.1738 34.9643C75.701 34.9643 69.669 42.3645 66.3011 47.5559V36.7566H40.9224C41.2568 43.9109 40.9224 113 40.9224 113H66.3011V70.4194C66.3011 68.1407 66.4658 65.8677 67.1367 64.2362C68.9707 59.6839 73.1464 54.9708 80.157 54.9708C89.3431 54.9708 93.0151 61.9621 93.0151 72.2077V112.998H118.39Z" fill="white"/>
</svg>
