<svg width="805" height="137" viewBox="0 0 805 137" fill="none" xmlns="http://www.w3.org/2000/svg">
<path d="M198.223 50.7672C192.303 51.5672 186.97 53.6206 182.223 56.9272C177.477 60.1806 173.743 64.3139 171.023 69.3272C168.357 74.2872 167.023 79.6739 167.023 85.4872C167.023 90.3406 167.957 94.1806 169.823 97.0072C171.69 99.8339 174.143 101.247 177.183 101.247C180.17 101.247 183.023 99.1939 185.743 95.0872C188.517 90.9272 190.73 85.5139 192.383 78.8472C194.09 72.1272 194.943 65.1406 194.943 57.8872L202.463 54.9272V96.8472C202.463 98.3406 202.783 99.5406 203.423 100.447C204.063 101.354 204.943 101.807 206.063 101.807C206.917 101.807 207.797 101.541 208.703 101.007C209.61 100.421 210.303 99.7272 210.783 98.9272L211.903 99.9672C211.157 101.621 210.01 103.007 208.463 104.127C206.917 105.247 205.157 105.807 203.183 105.807C200.73 105.807 198.73 104.954 197.183 103.247C195.69 101.541 194.943 99.1139 194.943 95.9672V80.6872H194.543C190.703 97.7539 184.197 106.287 175.023 106.287C170.277 106.287 166.463 104.634 163.583 101.327C160.703 97.9672 159.263 93.3806 159.263 87.5672C159.263 80.9006 161.023 74.6339 164.543 68.7672C168.063 62.9006 172.81 58.1272 178.783 54.4472C184.757 50.7672 191.237 48.7672 198.223 48.4472V50.7672ZM236.5 65.4072C239.113 65.4072 241.566 65.9672 243.86 67.0872C246.206 68.2072 247.913 69.9139 248.98 72.2072L243.22 75.3272C242.366 74.1006 241.193 73.0072 239.7 72.0472C238.206 71.0339 236.606 70.5272 234.9 70.5272C232.18 70.5272 229.806 71.2472 227.78 72.6872C225.753 74.0739 224.206 75.9672 223.14 78.3672C222.073 80.7672 221.54 83.4339 221.54 86.3672C221.54 90.5806 222.26 94.0206 223.7 96.6872C225.14 99.3006 227.406 100.607 230.5 100.607C234.873 100.607 237.886 98.8472 239.54 95.3272C241.193 91.8072 242.02 87.9672 242.02 83.8072V80.2072L249.06 77.2472V98.2872C249.06 98.9806 249.246 99.6472 249.62 100.287C249.993 100.927 250.553 101.247 251.3 101.247C252.846 101.247 254.26 100.181 255.54 98.0472L256.74 99.3272C256.1 101.141 254.98 102.687 253.38 103.967C251.78 105.194 250.18 105.807 248.58 105.807C246.286 105.807 244.58 104.954 243.46 103.247C242.393 101.541 241.86 99.2739 241.86 96.4472H241.7C240.366 99.2739 238.553 101.647 236.26 103.567C234.02 105.434 231.646 106.367 229.14 106.367C224.606 106.367 221.166 104.821 218.82 101.727C216.526 98.5806 215.38 94.3939 215.38 89.1672C215.38 85.0072 216.313 81.1139 218.18 77.4872C220.046 73.8072 222.58 70.8739 225.78 68.6872C229.033 66.5006 232.606 65.4072 236.5 65.4072ZM271.635 88.3672H271.955C272.489 85.4339 273.422 82.1539 274.755 78.5272C276.142 74.8472 277.982 71.6206 280.275 68.8472C282.569 66.0739 285.262 64.6872 288.355 64.6872C290.009 64.6872 291.209 65.3006 291.955 66.5272C292.755 67.7006 293.209 69.0339 293.315 70.5272C293.475 72.0206 293.555 73.9939 293.555 76.4472V98.6872C293.555 99.3272 293.742 99.9406 294.115 100.527C294.542 101.114 295.182 101.407 296.035 101.407C297.422 101.407 298.835 100.367 300.275 98.2872L301.235 99.4872C300.489 101.247 299.289 102.741 297.635 103.967C296.035 105.194 294.409 105.807 292.755 105.807C288.595 105.807 286.515 103.114 286.515 97.7272V76.5272C286.515 75.8339 286.355 75.1939 286.035 74.6072C285.769 74.0206 285.289 73.7272 284.595 73.7272C281.875 73.7272 279.529 75.8606 277.555 80.1272C275.582 84.3406 274.062 89.0072 272.995 94.1272C271.929 99.1939 271.395 102.634 271.395 104.447L264.275 106.527V34.5272L271.635 31.4872V88.3672ZM327.75 65.4072C330.363 65.4072 332.816 65.9672 335.11 67.0872C337.456 68.2072 339.163 69.9139 340.23 72.2072L334.47 75.3272C333.616 74.1006 332.443 73.0072 330.95 72.0472C329.456 71.0339 327.856 70.5272 326.15 70.5272C323.43 70.5272 321.056 71.2472 319.03 72.6872C317.003 74.0739 315.456 75.9672 314.39 78.3672C313.323 80.7672 312.79 83.4339 312.79 86.3672C312.79 90.5806 313.51 94.0206 314.95 96.6872C316.39 99.3006 318.656 100.607 321.75 100.607C326.123 100.607 329.136 98.8472 330.79 95.3272C332.443 91.8072 333.27 87.9672 333.27 83.8072V80.2072L340.31 77.2472V98.2872C340.31 98.9806 340.496 99.6472 340.87 100.287C341.243 100.927 341.803 101.247 342.55 101.247C344.096 101.247 345.51 100.181 346.79 98.0472L347.99 99.3272C347.35 101.141 346.23 102.687 344.63 103.967C343.03 105.194 341.43 105.807 339.83 105.807C337.536 105.807 335.83 104.954 334.71 103.247C333.643 101.541 333.11 99.2739 333.11 96.4472H332.95C331.616 99.2739 329.803 101.647 327.51 103.567C325.27 105.434 322.896 106.367 320.39 106.367C315.856 106.367 312.416 104.821 310.07 101.727C307.776 98.5806 306.63 94.3939 306.63 89.1672C306.63 85.0072 307.563 81.1139 309.43 77.4872C311.296 73.8072 313.83 70.8739 317.03 68.6872C320.283 66.5006 323.856 65.4072 327.75 65.4072ZM383.365 64.6872C385.499 64.6872 386.885 65.4872 387.525 67.0872C388.165 68.6339 388.485 70.7939 388.485 73.5672V76.0472V98.6872C388.485 99.2739 388.672 99.8872 389.045 100.527C389.419 101.114 389.952 101.407 390.645 101.407C391.552 101.407 392.325 101.114 392.965 100.527C393.605 99.9406 394.245 99.1939 394.885 98.2872L396.085 99.4872C395.285 101.194 394.085 102.687 392.485 103.967C390.885 105.194 389.365 105.807 387.925 105.807C385.792 105.807 384.139 105.141 382.965 103.807C381.792 102.474 381.205 100.447 381.205 97.7272V76.5272C381.205 75.7272 381.125 75.0606 380.965 74.5272C380.805 73.9939 380.405 73.7272 379.765 73.7272C377.579 73.7272 375.339 75.8339 373.045 80.0472C370.752 84.2606 368.779 88.9806 367.125 94.2072C365.525 99.3806 364.725 102.794 364.725 104.447L357.765 106.527V72.2872C357.765 71.5406 357.552 70.8739 357.125 70.2872C356.752 69.6472 356.192 69.3272 355.445 69.3272C354.165 69.3272 352.779 70.4739 351.285 72.7672L350.085 71.4872C350.779 69.5672 351.925 67.9672 353.525 66.6872C355.125 65.3539 356.725 64.6872 358.325 64.6872C360.565 64.6872 362.219 65.2206 363.285 66.2872C364.405 67.3539 364.965 68.8206 364.965 70.6872V91.7272H365.285C366.725 86.9806 368.112 82.8472 369.445 79.3272C370.779 75.8072 372.645 72.5006 375.045 69.4072C377.445 66.2606 380.219 64.6872 383.365 64.6872ZM429.545 47.0072V67.8872C430.665 63.4606 432.211 59.7006 434.185 56.6072C436.158 53.4606 438.291 51.1139 440.585 49.5672C442.878 47.9672 445.011 47.1672 446.985 47.1672C449.011 47.1672 450.531 47.8606 451.545 49.2472C452.558 50.6339 453.065 52.4739 453.065 54.7672V67.8072C454.185 63.3806 455.731 59.6206 457.705 56.5272C459.678 53.4339 461.785 51.1139 464.025 49.5672C466.318 47.9672 468.478 47.1672 470.505 47.1672C472.531 47.1672 474.051 47.8606 475.065 49.2472C476.078 50.5806 476.585 52.4206 476.585 54.7672V96.8472C476.585 98.3406 476.905 99.5406 477.545 100.447C478.185 101.354 479.065 101.807 480.185 101.807C481.038 101.807 481.891 101.541 482.745 101.007C483.651 100.421 484.398 99.7272 484.985 98.9272L486.105 99.9672C485.358 101.621 484.211 103.007 482.665 104.127C481.171 105.247 479.385 105.807 477.305 105.807C474.905 105.807 472.958 104.981 471.465 103.327C469.971 101.621 469.225 99.1672 469.225 95.9672V56.8472C469.225 55.6206 468.985 54.6872 468.505 54.0472C468.025 53.3539 467.385 53.0072 466.585 53.0072C464.931 53.0072 463.011 54.2872 460.825 56.8472C458.691 59.4072 456.851 62.9272 455.305 67.4072C453.758 71.8872 452.985 76.8739 452.985 82.3672V103.887L445.625 106.527V56.8472C445.625 55.6206 445.411 54.6872 444.985 54.0472C444.558 53.3539 443.971 53.0072 443.225 53.0072C441.571 53.0072 439.651 54.2872 437.465 56.8472C435.278 59.4072 433.411 62.9272 431.865 67.4072C430.318 71.8872 429.545 76.8739 429.545 82.3672V103.887L422.105 106.527V49.8872L429.545 47.0072ZM510.484 65.4072C513.097 65.4072 515.551 65.9672 517.844 67.0872C520.191 68.2072 521.897 69.9139 522.964 72.2072L517.204 75.3272C516.351 74.1006 515.177 73.0072 513.684 72.0472C512.191 71.0339 510.591 70.5272 508.884 70.5272C506.164 70.5272 503.791 71.2472 501.764 72.6872C499.737 74.0739 498.191 75.9672 497.124 78.3672C496.057 80.7672 495.524 83.4339 495.524 86.3672C495.524 90.5806 496.244 94.0206 497.684 96.6872C499.124 99.3006 501.391 100.607 504.484 100.607C508.857 100.607 511.871 98.8472 513.524 95.3272C515.177 91.8072 516.004 87.9672 516.004 83.8072V80.2072L523.044 77.2472V98.2872C523.044 98.9806 523.231 99.6472 523.604 100.287C523.977 100.927 524.537 101.247 525.284 101.247C526.831 101.247 528.244 100.181 529.524 98.0472L530.724 99.3272C530.084 101.141 528.964 102.687 527.364 103.967C525.764 105.194 524.164 105.807 522.564 105.807C520.271 105.807 518.564 104.954 517.444 103.247C516.377 101.541 515.844 99.2739 515.844 96.4472H515.684C514.351 99.2739 512.537 101.647 510.244 103.567C508.004 105.434 505.631 106.367 503.124 106.367C498.591 106.367 495.151 104.821 492.804 101.727C490.511 98.5806 489.364 94.3939 489.364 89.1672C489.364 85.0072 490.297 81.1139 492.164 77.4872C494.031 73.8072 496.564 70.8739 499.764 68.6872C503.017 66.5006 506.591 65.4072 510.484 65.4072ZM546.02 98.6872C546.02 99.3272 546.206 99.9406 546.58 100.527C546.953 101.114 547.593 101.407 548.5 101.407C549.246 101.407 550.02 101.087 550.82 100.447C551.673 99.7539 552.313 99.0339 552.74 98.2872L554.1 99.4872C553.193 101.247 551.94 102.741 550.34 103.967C548.74 105.194 547.14 105.807 545.54 105.807C541.06 105.807 538.82 103.114 538.82 97.7272V34.5272L546.02 31.4872V98.6872ZM569.526 88.3672H569.846C570.379 85.4339 571.313 82.1539 572.646 78.5272C574.033 74.8472 575.873 71.6206 578.166 68.8472C580.459 66.0739 583.153 64.6872 586.246 64.6872C587.899 64.6872 589.099 65.3006 589.846 66.5272C590.646 67.7006 591.099 69.0339 591.206 70.5272C591.366 72.0206 591.446 73.9939 591.446 76.4472V98.6872C591.446 99.3272 591.633 99.9406 592.006 100.527C592.433 101.114 593.073 101.407 593.926 101.407C595.313 101.407 596.726 100.367 598.166 98.2872L599.126 99.4872C598.379 101.247 597.179 102.741 595.526 103.967C593.926 105.194 592.299 105.807 590.646 105.807C586.486 105.807 584.406 103.114 584.406 97.7272V76.5272C584.406 75.8339 584.246 75.1939 583.926 74.6072C583.659 74.0206 583.179 73.7272 582.486 73.7272C579.766 73.7272 577.419 75.8606 575.446 80.1272C573.473 84.3406 571.953 89.0072 570.886 94.1272C569.819 99.1939 569.286 102.634 569.286 104.447L562.166 106.527V34.5272L569.526 31.4872V88.3672ZM624.28 66.3672C620.28 68.9272 617.134 71.7806 614.84 74.9272C612.547 78.0739 611.4 81.7806 611.4 86.0472C611.4 88.4472 611.907 90.8739 612.92 93.3272C613.934 95.7272 615.454 97.7272 617.48 99.3272C619.507 100.927 621.934 101.727 624.76 101.727C627.054 101.727 629.08 101.194 630.84 100.127C632.654 99.0606 634.04 97.6206 635 95.8072C636.014 93.9939 636.52 91.9939 636.52 89.8072C636.52 87.3006 635.747 84.7406 634.2 82.1272C632.707 79.5139 630.734 77.3006 628.28 75.4872C625.827 73.6739 623.32 72.6606 620.76 72.4472C621.827 71.3806 623.107 70.2606 624.6 69.0872C626.094 67.9139 627.614 66.7672 629.16 65.6472C632.84 66.8739 635.747 69.2206 637.88 72.6872C640.014 76.1006 641.08 79.9139 641.08 84.1272C641.08 87.8606 640.307 91.4606 638.76 94.9272C637.267 98.3406 635.054 101.141 632.12 103.327C629.187 105.461 625.72 106.527 621.72 106.527C618.52 106.527 615.56 105.754 612.84 104.207C610.174 102.607 608.067 100.447 606.52 97.7272C604.974 95.0072 604.2 91.9939 604.2 88.6872C604.2 82.8739 605.907 77.8339 609.32 73.5672C612.787 69.3006 617.294 66.3406 622.84 64.6872L624.28 66.3672ZM660.025 65.4072H671.145L668.745 70.5272H660.025V98.6872C660.025 99.4872 660.265 100.154 660.745 100.687C661.225 101.167 661.865 101.407 662.665 101.407C663.785 101.407 665.331 100.367 667.305 98.2872L668.425 99.4872C667.411 101.514 666.185 103.034 664.745 104.047C663.358 105.007 662.025 105.594 660.745 105.807C659.518 106.074 658.905 106.101 658.905 105.887C658.958 105.887 659.038 105.861 659.145 105.807C659.251 105.807 659.411 105.807 659.625 105.807C654.931 105.807 652.585 103.114 652.585 97.7272V70.5272H646.585L649.065 65.4072H652.585V47.0072L660.025 44.1272V65.4072ZM694.321 75.1672C691.921 77.6739 689.841 80.9539 688.081 85.0072C686.374 89.0072 685.521 92.6606 685.521 95.9672C685.521 98.8472 686.134 101.274 687.361 103.247C688.641 105.167 690.668 106.127 693.441 106.127C695.681 106.127 697.814 105.541 699.841 104.367C701.921 103.194 703.681 101.674 705.121 99.8072L704.241 98.6072C702.588 99.7272 700.961 100.287 699.361 100.287C696.854 100.287 694.961 99.4072 693.681 97.6472C692.401 95.8872 691.761 93.7539 691.761 91.2472C691.761 87.1939 692.801 83.3539 694.881 79.7272C696.961 76.1006 699.601 72.5806 702.801 69.1672L701.521 68.0472C697.788 70.3939 694.374 71.5672 691.281 71.5672C689.468 71.5672 687.814 70.7672 686.321 69.1672C684.828 67.5139 683.681 65.7006 682.881 63.7272L676.401 71.0072C676.774 72.0739 677.788 73.3006 679.441 74.6872L674.081 85.8872L677.041 87.2472L682.241 75.8072C683.148 76.1806 683.894 76.4206 684.481 76.5272C685.068 76.6339 685.868 76.6872 686.881 76.6872C689.494 76.6872 691.894 76.1006 694.081 74.9272L694.321 75.1672ZM732.515 65.4072C735.129 65.4072 737.582 65.9672 739.875 67.0872C742.222 68.2072 743.929 69.9139 744.995 72.2072L739.235 75.3272C738.382 74.1006 737.209 73.0072 735.715 72.0472C734.222 71.0339 732.622 70.5272 730.915 70.5272C728.195 70.5272 725.822 71.2472 723.795 72.6872C721.769 74.0739 720.222 75.9672 719.155 78.3672C718.089 80.7672 717.555 83.4339 717.555 86.3672C717.555 90.5806 718.275 94.0206 719.715 96.6872C721.155 99.3006 723.422 100.607 726.515 100.607C730.889 100.607 733.902 98.8472 735.555 95.3272C737.209 91.8072 738.035 87.9672 738.035 83.8072V80.2072L745.075 77.2472V98.2872C745.075 98.9806 745.262 99.6472 745.635 100.287C746.009 100.927 746.569 101.247 747.315 101.247C748.862 101.247 750.275 100.181 751.555 98.0472L752.755 99.3272C752.115 101.141 750.995 102.687 749.395 103.967C747.795 105.194 746.195 105.807 744.595 105.807C742.302 105.807 740.595 104.954 739.475 103.247C738.409 101.541 737.875 99.2739 737.875 96.4472H737.715C736.382 99.2739 734.569 101.647 732.275 103.567C730.035 105.434 727.662 106.367 725.155 106.367C720.622 106.367 717.182 104.821 714.835 101.727C712.542 98.5806 711.395 94.3939 711.395 89.1672C711.395 85.0072 712.329 81.1139 714.195 77.4872C716.062 73.8072 718.595 70.8739 721.795 68.6872C725.049 66.5006 728.622 65.4072 732.515 65.4072Z" fill="#F8F8F8"/>
<path d="M90.1413 68.606C90.1413 80.4996 80.4996 90.1413 68.606 90.1413C56.7123 90.1413 47.0706 80.4996 47.0706 68.606C47.0706 56.7123 56.7123 47.0706 68.606 47.0706C80.4996 47.0706 90.1413 56.7123 90.1413 68.606Z" fill="#F8F8F8"/>
<path d="M4 68.606H18.3569M118.855 68.606H133.212M68.606 4V18.3569M68.606 118.855V133.212M18.357 18.357L32.7139 32.7139M104.498 104.498L118.855 118.855M18.3573 118.855L32.7142 104.498M104.498 32.7136L118.855 18.3568M90.1413 68.606C90.1413 80.4996 80.4996 90.1413 68.606 90.1413C56.7123 90.1413 47.0706 80.4996 47.0706 68.606C47.0706 56.7123 56.7123 47.0706 68.606 47.0706C80.4996 47.0706 90.1413 56.7123 90.1413 68.606Z" stroke="#F8F8F8" stroke-width="7" stroke-linecap="round" stroke-linejoin="round"/>
</svg>
