<svg width="251" height="251" viewBox="0 0 251 251" fill="none" xmlns="http://www.w3.org/2000/svg">
<path fill-rule="evenodd" clip-rule="evenodd" d="M0.361983 125.501L0.722552 251H125.861H251V125.861V0.722552L125.501 0.361983L0 0L0.361983 125.501ZM63.6454 116.67V185.249H76.4393H89.2317L88.8117 194.087L88.3904 202.924L67.5339 203.316L46.6775 203.706V125.899V48.0914H55.1614H63.6454V116.67ZM142.829 56.3916V64.6918L136.451 65.4101C129.256 66.2217 121.1 71.1608 118.869 76.0589C116.4 81.4759 117.147 94.8141 120.307 101.782C121.885 105.259 127.247 115.122 132.226 123.699C145.165 145.997 148.266 160.395 143.55 176.277C138.908 191.909 125.696 202.484 110.449 202.774L102.53 202.924V194.457V185.991L109.074 185.055C122.046 183.199 127.261 177.085 127.27 163.721C127.277 154.315 123.602 145.367 111.144 124.447C101.099 107.577 98.4467 98.8935 99.3022 85.6741C100.776 62.9144 114.759 48.3898 135.406 48.1706L142.829 48.0914V56.3916ZM205.045 56.5754V65.0594H192.285H179.527L179.913 89.4509L180.3 113.842L191.205 114.254L202.111 114.667L202.986 119.333C203.468 121.901 203.651 125.851 203.394 128.112L202.924 132.224L191.259 132.634L179.593 133.046V159.147V185.249H192.387H205.179L204.759 194.087L204.338 202.924H183.128H161.918L161.552 125.508L161.187 48.0914H183.115H205.045V56.5754Z" fill="#FF0823"/>
</svg>
