<svg width="331" height="251" viewBox="0 0 331 251" fill="none" xmlns="http://www.w3.org/2000/svg">
<path fill-rule="evenodd" clip-rule="evenodd" d="M148.834 10.819C149.712 18.2213 149.338 21.6379 147.65 21.6379C146.295 21.6379 145.185 20.6642 145.185 19.4741C145.185 18.2841 144.211 17.3103 143.021 17.3103C141.83 17.3103 140.856 18.7709 140.856 20.556C140.856 24.2366 150.608 25.1173 152.764 21.6314C154.58 18.6908 151.647 0 149.371 0C148.371 0 148.13 4.86853 148.834 10.819ZM160.817 11.3599C158.279 24.1544 158.96 26.4805 163.471 20.3981C166.514 16.2912 166.609 16.2934 169.87 20.556L173.182 24.8836L173.24 20.556C173.342 12.6777 168.836 0 165.931 0C164.213 0 162.174 4.52882 160.817 11.3599ZM190.203 12.8594C186.565 24.2345 187.319 28.3327 191.909 22.1443C194.528 18.6173 194.893 18.6519 198.006 22.7198C201.239 26.9436 201.319 26.9111 201.386 21.3675C201.503 11.8121 198.891 2.16379 196.188 2.16379C194.779 2.16379 192.084 6.97823 190.203 12.8594ZM123.542 9.46659C123.542 12.2925 122.934 17.6479 122.19 21.3675C121.315 25.7362 121.698 28.1293 123.272 28.1293C124.612 28.1293 125.707 26.6687 125.707 24.8836C125.707 20.9672 131.442 20.5301 132.805 24.3427C133.336 25.8314 134.493 26.3766 135.379 25.5566C137.813 23.2976 129.875 4.32759 126.494 4.32759C124.83 4.32759 123.542 6.56928 123.542 9.46659ZM210.058 9.87772C206.228 19.9523 207.403 25.747 213.59 27.2984C219.555 28.7958 223.559 25.3791 222.555 19.6537C221.68 14.6748 216.519 14.1988 217.14 19.1561C217.441 21.5622 216.713 23.8342 215.523 24.2064C212.27 25.2233 211.645 16.0445 214.59 10.5398C216.945 6.14084 217.408 6.03049 219.81 9.31297C222.78 13.3744 225.58 12.0026 223.799 7.36122C221.747 2.01665 212.398 3.72822 210.058 9.87772ZM100.526 7.80047C97.3073 9.17448 102.019 28.5296 105.886 29.8192C107.797 30.4554 108.172 29.0814 107.17 25.0957C106.237 21.3783 106.64 19.4741 108.36 19.4741C109.791 19.4741 111.472 21.4216 112.093 23.8017C112.717 26.1819 114.087 28.1293 115.139 28.1293C117.688 28.1293 117.526 26.4459 113.985 16.2284C111.102 7.9065 106.715 5.15848 100.526 7.80047ZM168.992 12.0285C168.992 13.7444 168.018 15.1466 166.827 15.1466C165.637 15.1466 164.663 13.1407 164.663 10.6913C164.663 8.24189 165.637 6.83759 166.827 7.57328C168.018 8.30897 168.992 10.3126 168.992 12.0285ZM196.235 16.7586C193.909 19.0847 192.673 15.826 194.307 11.6693C195.839 7.77018 195.956 7.76369 196.714 11.5287C197.151 13.7055 196.936 16.0575 196.235 16.7586ZM229.933 17.0204C228.554 21.6206 227.426 26.4892 227.426 27.8394C227.426 32.0782 231.194 30.5052 232.439 25.747C233.123 23.1309 234.646 21.8305 236.025 22.6852C237.345 23.4988 237.832 26.0304 237.107 28.3111C236.384 30.5917 236.726 32.4569 237.871 32.4569C240.434 32.4569 243.003 26.2403 241.466 23.7563C240.847 22.7544 241.332 21.3263 242.542 20.5777C245.948 18.4723 245.136 11.4335 241.317 9.96859C234.614 7.39584 232.409 8.76336 229.933 17.0204ZM108.717 14.0647C108.717 15.1942 107.67 16.4686 106.391 16.8949C105.112 17.3212 104.064 16.0489 104.064 14.0647C104.064 12.0805 105.112 10.8081 106.391 11.2344C107.67 11.6607 108.717 12.9352 108.717 14.0647ZM130.035 15.1466C130.035 17.5267 129.061 19.4741 127.871 19.4741C126.681 19.4741 125.707 17.5267 125.707 15.1466C125.707 12.7664 126.681 10.819 127.871 10.819C129.061 10.819 130.035 12.7664 130.035 15.1466ZM238.717 17.7063C235.417 21.0061 233.408 18.9959 235.237 14.2291C236.244 11.6066 237.33 11.1998 238.968 12.8378C240.605 14.4736 240.531 15.8931 238.717 17.7063ZM83.1964 21.097C83.9344 25.5609 84.549 30.9141 84.562 32.9978C84.5967 38.3424 88.1677 37.7106 89.635 32.102C90.6782 28.1142 91.3664 27.8372 94.2687 30.2455C99.8308 34.863 99.7053 31.9679 93.9138 22.1789C86.8561 10.2477 81.3113 9.6873 83.1964 21.097ZM250.692 23.9186C244.134 33.3895 242.669 39.0327 247.892 34.6986C251.653 31.5806 255.562 33.4804 255.562 38.4268C255.562 40.649 256.317 41.2094 257.579 39.922C260.405 37.0441 261.442 16.83 258.808 16.0034C257.618 15.6291 253.967 19.1928 250.692 23.9186ZM68.4946 24.6716C69.4274 28.389 69.0249 30.2931 67.3043 30.2931C65.8737 30.2931 64.1921 28.3457 63.5709 25.9655C62.4585 21.7158 58.6148 19.8225 58.6148 23.5269C58.6148 28.1509 67.7263 45.4137 69.5659 44.2777C70.8385 43.4901 70.7909 41.4799 69.4426 38.9591C66.5425 33.5453 66.6983 32.4569 70.3732 32.4569C72.0786 32.4569 74.0957 34.4195 74.8575 36.8169C75.6172 39.2144 77.0867 40.6512 78.1212 40.0129C79.1557 39.3745 78.1667 34.7527 75.9245 29.7435C71.2411 19.2881 66.2936 15.9104 68.4946 24.6716ZM91.0786 23.9294C91.0786 25.0502 90.1047 25.9655 88.9143 25.9655C87.724 25.9655 86.7501 24.4465 86.7501 22.5922C86.7501 20.7378 87.724 19.8203 88.9143 20.556C90.1047 21.2917 91.0786 22.8085 91.0786 23.9294ZM256.86 27.2638C256.09 29.2696 254.973 30.4251 254.378 29.8301C253.783 29.235 253.926 27.1058 254.696 25.1C255.466 23.0942 256.583 21.9387 257.178 22.5337C257.774 23.1288 257.631 25.258 256.86 27.2638ZM271.443 29.3454C270.664 31.3728 271.19 34.889 272.607 37.1588C276.142 42.8171 273.142 47.3633 269.322 42.1377C266.056 37.676 263.007 39.1625 264.965 44.2647C266.641 48.6291 276.367 48.5815 278.046 44.202C278.765 42.3303 278.382 38.9851 277.196 36.7693C274.44 31.6238 274.445 28.1293 277.204 28.1293C278.395 28.1293 279.368 29.5899 279.368 31.375C279.368 33.1601 280.414 34.6207 281.691 34.6207C282.97 34.6207 283.69 32.9178 283.292 30.8341C282.316 25.7102 273.274 24.5742 271.443 29.3454ZM44.2377 31.7407C42.4543 32.405 42.7205 35.6528 45.1921 43.3797C48.9255 55.0512 50.949 56.6481 52.8428 49.4124C53.8426 45.5825 54.6456 45.206 57.2297 47.3524C58.9697 48.7957 60.9262 49.1138 61.5798 48.06C63.1814 45.4699 47.3564 30.5766 44.2377 31.7407ZM141.458 36.9316C65.9646 44.2344 10.1053 89.5226 19.4159 135.878C22.6038 151.749 29.8995 163.669 44.6965 177.191C87.4015 216.213 175.595 227.964 242.507 203.55C273.003 192.424 297.719 172.965 308.642 151.483C310.757 147.326 312.945 137.494 313.507 129.629C314.931 109.756 307.46 93.1491 289.714 76.7216C275.001 63.1027 245.132 47.7528 222.847 42.3584C209.844 39.2101 170.437 34.387 162.499 34.9712C160.713 35.1032 151.245 35.9839 141.458 36.9316ZM285.086 43.4533C279.143 51.8488 279.059 52.314 282.922 55.2395C288.209 59.2447 291.419 59.2641 288.103 55.2719C284.465 50.8859 287.404 47.1144 293.06 48.9104C297.152 50.2087 297.375 49.962 294.856 46.9283C291.261 42.5986 293.419 38.6735 298.375 40.53C301.623 41.7461 301.719 41.4626 299.124 38.271C294.674 32.8031 291.899 33.8266 285.086 43.4533ZM52.9098 43.7519C52.1026 45.0588 50.8516 44.7494 49.7197 42.9664C46.7634 38.2991 47.497 36.0077 51.0161 38.9288C52.7886 40.4002 53.6414 42.5705 52.9098 43.7519ZM173.158 41.0255C177.85 43.5355 185.611 60.8848 187.596 73.3007C188.39 78.2601 189.647 82.6958 190.39 83.1546C191.134 83.6155 198.553 81.6702 206.879 78.8356C231.114 70.5808 246.905 72.6861 246.905 84.1716C246.905 90.2648 234.906 106.679 223.299 116.464L212.588 125.496L228.522 141.185C249.026 161.374 252.235 172.526 238.994 177.559C232.305 180.101 219.168 177.868 201.637 171.208L190.615 167.021L189.353 172.766C185.104 192.128 181.023 202.52 175.497 208.044C167.827 215.713 163.767 215.806 156.969 208.473C151.846 202.946 143.021 179.104 143.021 170.788C143.021 166.887 142.726 166.891 133.318 170.924C118.14 177.429 99.7486 180.508 92.7018 177.725C87.8733 175.819 86.7631 174.036 86.8193 168.289C86.8994 159.926 88.9923 156.832 106.419 139.32L119.582 126.093L107.261 114.443C93.7601 101.679 88.0984 94.4777 85.8411 87.203C83.7439 80.4498 91.1868 73.569 100.59 73.569C106.592 73.569 127.657 78.9568 139.664 83.5635C141.369 84.217 143.265 80.1794 145.072 72.037C151.046 45.1259 160.765 34.3935 173.158 41.0255ZM27.3933 43.0162C26.612 44.2799 27.4994 48.2612 29.365 51.8683C33.3212 59.5173 32.1677 60.0647 24.6144 54.1251C19.5825 50.1675 15.3298 49.9858 15.3298 53.7291C15.3298 57.1198 28.8066 71.3576 30.8302 70.1069C32.0681 69.3409 30.3692 65.9243 26.8696 62.1441L20.7404 55.5208L27.5665 60.2184C34.2843 64.8381 39.1365 66.2337 39.1365 63.5463C39.1365 62.7933 37.0242 58.6561 34.4445 54.3502L29.7524 46.5216L36.5849 52.855C46.534 62.0749 47.0642 58.5393 37.1822 48.8887C32.159 43.9877 28.246 41.6379 27.3933 43.0162ZM301.409 53.1752C296.412 57.4509 292.923 61.9213 293.659 63.1092C294.416 64.3361 297.843 62.6202 301.582 59.1408C308.036 53.1406 307.913 55.7458 301.383 63.3429C298.851 66.2878 298.676 67.7722 300.632 69.7282C302.589 71.6843 305.186 70.3211 311.795 63.8665C321.853 54.0494 321.541 50.306 311.445 59.6623L304.612 65.9957L309.579 57.7235C316.708 45.8486 312.624 43.5766 301.409 53.1752ZM158.218 56.7996C155.997 61.8564 153.255 71.1477 152.126 77.4465L150.072 88.8973L157.893 92.9111C165.531 96.8276 165.905 96.8254 173.846 92.7748C183.105 88.0534 183.174 87.7288 178.62 70.2367C172.344 46.1191 165.025 41.2982 158.218 56.7996ZM93.2428 83.4142C93.2428 89.0639 105.614 103.373 122.837 117.645C127.399 121.428 127.745 121.395 134.299 116.551C140.341 112.084 140.986 110.544 140.415 101.949L139.774 92.3399L124.744 87.2809C111.048 82.6742 93.2428 80.4866 93.2428 83.4142ZM206.186 87.5233C198.67 90.3146 192.253 92.9414 191.926 93.3612C191.597 93.781 191.764 98.2708 192.292 103.336C193.039 110.472 194.699 113.575 199.659 117.107L206.061 121.664L222.154 105.574C231.006 96.7237 238.248 87.85 238.248 85.8528C238.248 80.4996 222.959 81.2959 206.186 87.5233ZM149.513 101.698C149.513 104.535 150.563 105.487 152.76 104.645C154.545 103.959 156.006 102.633 156.006 101.698C156.006 100.764 154.545 99.4371 152.76 98.7512C150.563 97.9095 149.513 98.8615 149.513 101.698ZM177.649 99.5669C174.764 101.462 174.764 101.934 177.649 103.83C182.514 107.023 184.141 106.489 184.141 101.698C184.141 96.9076 182.514 96.3732 177.649 99.5669ZM156.547 111.578C148.005 116.698 147.349 117.754 147.349 126.404C147.349 135.22 147.864 135.99 156.987 140.828L166.624 145.941L174.842 141.259C182.217 137.059 183.126 135.577 183.715 126.811C184.341 117.49 183.97 116.791 175.642 111.535C170.842 108.506 166.65 106.035 166.33 106.045C166.007 106.058 161.607 108.547 156.547 111.578ZM177.564 117.254C183.399 123.516 183.133 128.869 176.664 135.334C170.788 141.211 166.73 141.884 159.651 138.158C153.428 134.884 151.751 132.119 151.71 125.082C151.645 113.484 169.121 108.192 177.564 117.254ZM135.446 125.5C134.71 126.69 135.141 127.664 136.4 127.664C137.66 127.664 138.692 126.69 138.692 125.5C138.692 124.31 138.264 123.336 137.738 123.336C137.212 123.336 136.182 124.31 135.446 125.5ZM192.798 126.71C192.798 128.564 193.787 129.471 194.997 128.724C196.207 127.975 196.638 126.459 195.952 125.351C194.097 122.35 192.798 122.908 192.798 126.71ZM112.338 144.433C96.7424 159.303 91.2885 168.161 96.4957 170.161C101.35 172.022 114.654 169.544 128.737 164.156C140.848 159.523 140.856 159.515 140.856 150.241C140.856 142.793 139.731 140.075 135.154 136.477C132.018 134.01 128.537 131.991 127.419 131.991C126.3 131.991 119.513 137.589 112.338 144.433ZM197.932 135.826C195.023 138.188 192.898 143.02 192.162 148.947C191.026 158.087 191.201 158.416 198.932 161.687C209.314 166.082 227.234 170.881 233.378 170.914C242.656 170.963 239.048 162.507 223.113 146.857C214.787 138.68 206.754 132.013 205.258 132.039C203.76 132.065 200.464 133.77 197.932 135.826ZM178.941 148.306C175.162 151.093 175.125 151.463 178.493 152.755C182.91 154.449 184.782 152.959 183.791 148.534C183.157 145.701 182.51 145.671 178.941 148.306ZM149.513 151.483C149.513 155.259 150.072 155.482 153.755 153.181C156.816 151.271 157.268 150.07 155.378 148.869C151.115 146.16 149.513 146.874 149.513 151.483ZM157.811 160.175L149.877 164.364L152.792 176.853C158.276 200.359 163.661 208.717 169.955 203.494C173.528 200.53 179.055 184.803 181.031 171.976C182.319 163.62 182.062 163.126 174.526 159.534C170.21 157.477 166.47 155.836 166.213 155.888C165.955 155.942 162.174 157.87 157.811 160.175ZM314.003 166.72C313.999 168.564 315.215 171.353 316.702 172.913C318.907 175.228 318.539 175.492 314.719 174.341C312.142 173.564 309.456 173.861 308.748 175.003C308.043 176.146 310.625 177.773 314.488 178.621C318.349 179.469 323.714 181.607 326.408 183.373C333.728 188.168 332.187 184.048 322.567 173.103C317.572 167.421 314.005 164.762 314.003 166.72ZM9.86721 172.363C-1.14234 179.701 -0.780909 179.355 0.857429 180.993C1.62574 181.763 6.26157 179.742 11.1549 176.503C22.9782 168.681 24.3287 170.756 13.1655 179.595C2.98922 187.653 3.28572 191.567 13.501 184.015C20.1236 179.121 20.1387 181.161 13.5378 188.843C11.1528 191.615 10.8931 193.335 12.6007 195.042C14.3083 196.749 17.4594 195.399 23.9608 190.174C28.9105 186.199 31.843 182.574 30.4817 182.12C29.1204 181.666 25.4412 183.589 22.3073 186.396L16.6089 191.496L20.3292 186.086C26.6164 176.942 26.8977 175.051 22.6125 170.769C18.5372 166.692 18.3424 166.716 9.86721 172.363ZM301.126 182.702C296.206 188.629 309.142 202.959 316.771 200.032C324.093 197.223 322.53 186.086 314.815 186.086C310.824 186.086 311.008 189.635 315.079 191.197C319.091 192.736 319.368 196.905 315.455 196.905C312.546 196.905 303.175 188.129 303.175 185.407C303.175 184.589 305.182 183.922 307.631 183.922C310.081 183.922 311.486 182.949 310.75 181.759C308.822 178.638 304.117 179.099 301.126 182.702ZM31.157 188.791C30.1982 190.28 29.4104 193.93 29.4061 196.905C29.4017 199.88 28.43 202.315 27.2483 202.315C26.0666 202.315 25.3784 201.099 25.7204 199.61C26.4713 196.338 22.6385 195.999 20.682 199.164C18.5285 202.648 24.1556 208.01 29.207 207.287C32.7585 206.781 33.7497 205.052 33.8406 199.212C33.9077 194.964 35.2149 191.359 36.8922 190.801C38.853 190.148 39.3833 190.974 38.4938 193.296C37.7601 195.204 38.0999 197.347 39.2469 198.054C42.5517 200.099 44.2334 192.863 41.277 189.304C38.0176 185.379 33.503 185.149 31.157 188.791ZM288.458 193.01C284.727 196.741 285.303 199.359 291.363 206.248C297.286 212.98 305.887 213.547 307.08 207.285C307.997 202.475 299.033 190.414 294.544 190.414C292.624 190.414 289.887 191.582 288.458 193.01ZM46.6876 196.866C47.4105 198.037 45.5449 202.605 42.5452 207.021C35.3859 217.554 37.7774 219.573 45.941 209.888C49.5379 205.621 53.9314 202.587 56.009 202.938C58.6408 203.381 58.1473 202.31 54.2863 199.199C48.5424 194.568 44.4996 193.328 46.6876 196.866ZM300.526 201.687C305.562 210.016 301.842 212.052 295.583 204.394C292.702 200.869 290.311 197.186 290.268 196.206C290.099 192.363 297.172 196.141 300.526 201.687ZM272.876 202.36C272.876 204.463 284.262 220.707 285.736 220.707C286.541 220.707 289.088 219.197 291.4 217.349C295.505 214.068 295.494 214.021 290.954 215.261C287.3 216.258 285.296 214.895 281.578 208.882C277.494 202.271 272.876 198.814 272.876 202.36ZM55.8943 213.222C49.3323 224.082 49.0207 225.034 52.0312 225.034C53.9963 225.034 65.1076 207.867 65.1076 204.829C65.1076 200.869 61.2119 204.418 55.8943 213.222ZM259.966 208.715C257.871 211.238 258.33 213.618 262.264 220.616C267.537 229.996 269.831 230.983 275.953 226.508C279.693 223.773 279.663 223.275 275.239 214.607C270.393 205.11 264.762 202.938 259.966 208.715ZM68.5249 210.632C69.198 212.389 68.1592 216.901 66.2157 220.659C64.27 224.416 63.0732 228.644 63.5515 230.05C64.0319 231.457 66.5446 228.471 69.1374 223.412C71.8535 218.113 75.3943 214.216 77.4871 214.216C82.0883 214.216 78.7597 210.903 72.1544 208.908C68.4189 207.778 67.5813 208.176 68.5249 210.632ZM271.737 216.271C275.778 224.082 275.821 225.034 272.142 225.034C269.673 225.034 267.79 222.395 262.485 211.511C262.05 210.619 263.21 209.888 265.065 209.888C266.92 209.888 269.922 212.761 271.737 216.271ZM252.328 215.838C256.233 225.318 255.731 227.977 251.283 221.369C248.426 217.121 245.433 214.917 243.522 215.65C239.652 217.134 239.548 216.217 245.002 228.642C247.526 234.393 250.023 237.935 250.554 236.513C251.082 235.092 250.398 231.844 249.034 229.297C245.154 222.048 248.056 221.942 252.631 229.165C255.479 233.666 257.626 235.087 259.665 233.828C262.096 232.326 261.944 230.301 258.786 222.033C256.689 216.544 254.027 212.052 252.872 212.052C251.716 212.052 251.471 213.755 252.328 215.838ZM79.2033 222.053C75.048 231.998 75.0783 235.064 79.3527 236.704C86.103 239.294 88.4966 237.887 91.9248 229.319C95.959 219.238 96.2511 216.379 93.2428 216.379C92.0525 216.379 91.0786 217.234 91.0786 218.279C91.0786 219.324 89.5506 223.834 87.685 228.3C85.4212 233.716 83.5686 235.702 82.1251 234.259C80.6837 232.818 81.0927 229.388 83.3565 223.972C87.3561 214.399 87.3799 214.216 84.614 214.216C83.4409 214.216 81.0062 217.743 79.2033 222.053ZM99.5841 221.607C101.712 224.169 101.8 226.536 99.9628 231.803C97.0952 240.027 96.9697 242.345 99.3936 242.345C100.396 242.345 102.382 238.45 103.809 233.69C105.48 228.109 107.678 225.034 109.994 225.034C115.216 225.034 110.687 221.553 103.144 219.768C97.6103 218.459 97.1623 218.69 99.5841 221.607ZM233.919 223.953C233.919 230.424 230.441 231.121 228.509 225.034C227.753 222.654 226.121 220.707 224.886 220.707C223.648 220.707 223.172 222.107 223.829 223.816C224.485 225.528 226.095 230.914 227.407 235.784C228.718 240.655 230.725 244.063 231.863 243.36C233.004 242.656 233.339 239.705 232.61 236.803C231.757 233.402 232.209 231.526 233.887 231.526C235.317 231.526 236.999 233.473 237.62 235.853C238.243 238.234 239.726 240.181 240.916 240.181C242.128 240.181 242.47 238.039 241.695 235.312C240.931 232.636 239.722 227.767 239.007 224.494C237.382 217.059 233.919 216.691 233.919 223.953ZM114.065 226.657C113.453 228.741 112.306 234.096 111.513 238.558C110.12 246.417 110.271 246.664 116.268 246.421C120.16 246.263 121.008 245.794 118.549 245.158C113.559 243.864 114.771 236.704 119.833 237.571C121.874 237.92 123.542 237.191 123.542 235.949C123.542 234.707 122.081 233.69 120.296 233.69C115.418 233.69 116.394 229.128 121.562 227.778C124.99 226.88 125.38 226.16 123.185 224.768C118.608 221.867 115.268 222.559 114.065 226.657ZM208.697 226.203C206.448 232.062 210.708 245.452 215.086 246.287C219.696 247.166 225.758 242.734 223.948 239.807C223.252 238.679 221.388 239.521 219.806 241.674C217.12 245.331 216.774 245.186 214.603 239.499C210.926 229.868 211.571 226.683 216.861 228.362C220.174 229.412 221.178 229.003 220.479 226.885C219.014 222.44 210.333 221.94 208.697 226.203ZM195.222 226.993C193.004 228.397 192.621 231.45 193.731 238.859C195.127 248.168 195.662 248.836 201.715 248.836C205.293 248.836 207.63 247.908 206.924 246.768C206.221 245.629 204.215 245.246 202.468 245.917C200.317 246.742 199.291 245.714 199.291 242.734C199.291 240.315 200.994 237.89 203.079 237.344C205.929 236.6 205.661 236.293 201.996 236.104C196.633 235.827 195.075 229.362 200.373 229.362C202.159 229.362 203.62 228.388 203.62 227.198C203.62 224.545 199.254 224.437 195.222 226.993ZM136.532 232.599C132.645 242.819 133.79 248.609 140.006 250.169C147.221 251.98 149.736 248.28 148.996 236.935C148.531 229.816 147.568 228.157 143.566 227.59C139.969 227.079 138.134 228.386 136.532 232.599ZM155.05 228.875C152.905 231.02 153.768 251 156.006 251C157.196 251 158.17 249.053 158.17 246.672C158.17 244.268 159.614 242.345 161.417 242.345C163.202 242.345 164.663 241.371 164.663 240.181C164.663 238.991 163.202 238.017 161.417 238.017C156.876 238.017 157.341 232.015 161.958 231.056C165.087 230.405 164.921 230.044 161.001 228.968C158.391 228.254 155.714 228.213 155.05 228.875ZM174.402 229.362C173.666 230.552 174.584 231.526 176.439 231.526C178.486 231.526 179.824 233.441 179.843 236.394C179.886 243.589 182.209 251 184.418 251C185.485 251 185.734 247.109 184.975 242.356C184.076 236.747 184.542 232.569 186.297 230.455C188.604 227.676 188.028 227.198 182.369 227.198C178.724 227.198 175.138 228.172 174.402 229.362ZM145.185 237.89C145.185 246.476 142.391 250.905 139.709 246.566C137.751 243.401 140.534 229.362 143.118 229.362C144.254 229.362 145.185 233.198 145.185 237.89Z" fill="#FF0000"/>
</svg>
