<svg width="55" height="55" viewBox="0 0 55 55" fill="none" xmlns="http://www.w3.org/2000/svg">
<path d="M41.1111 27.5L42.8789 29.2678C43.3477 28.7989 43.6111 28.163 43.6111 27.5C43.6111 26.837 43.3477 26.2011 42.8789 25.7322L41.1111 27.5ZM13.8889 25C12.5082 25 11.3889 26.1193 11.3889 27.5C11.3889 28.8807 12.5082 30 13.8889 30L13.8889 25ZM28.4545 36.6211C27.4781 37.5974 27.4781 39.1803 28.4545 40.1567C29.4308 41.133 31.0137 41.133 31.99 40.1567L28.4545 36.6211ZM31.99 14.8433C31.0137 13.867 29.4308 13.867 28.4545 14.8433C27.4781 15.8197 27.4781 17.4026 28.4545 18.3789L31.99 14.8433ZM41.1111 25L13.8889 25L13.8889 30L41.1111 30L41.1111 25ZM31.99 40.1567C34.1162 38.0305 36.8384 35.3082 39.0291 33.1176C40.1244 32.0222 41.0869 31.0598 41.7755 30.3712C42.1198 30.0269 42.3956 29.751 42.5854 29.5612C42.6803 29.4663 42.7537 29.393 42.8033 29.3433C42.8281 29.3185 42.847 29.2996 42.8597 29.2869C42.8661 29.2806 42.8708 29.2758 42.8741 29.2726C42.8757 29.271 42.8769 29.2698 42.8777 29.269C42.8781 29.2686 42.8784 29.2683 42.8786 29.2681C42.8787 29.268 42.8788 29.2679 42.8788 29.2678C42.8789 29.2678 42.8789 29.2678 41.1111 27.5C39.3433 25.7322 39.3433 25.7323 39.3433 25.7323C39.3432 25.7324 39.3431 25.7324 39.343 25.7325C39.3428 25.7327 39.3425 25.733 39.3421 25.7334C39.3413 25.7343 39.3401 25.7355 39.3385 25.7371C39.3353 25.7403 39.3305 25.7451 39.3242 25.7514C39.3115 25.7641 39.2926 25.783 39.2678 25.8078C39.2181 25.8574 39.1448 25.9308 39.0499 26.0257C38.8601 26.2155 38.5843 26.4913 38.2399 26.8356C37.5513 27.5242 36.5889 28.4867 35.4935 29.582C33.3029 31.7727 30.5806 34.4949 28.4545 36.6211L31.99 40.1567ZM42.8789 25.7322L31.99 14.8433L28.4545 18.3789L39.3433 29.2678L42.8789 25.7322ZM5.5 27.5C5.5 15.3497 15.3497 5.5 27.5 5.5V0.5C12.5883 0.5 0.5 12.5883 0.5 27.5H5.5ZM27.5 5.5C39.6503 5.5 49.5 15.3497 49.5 27.5H54.5C54.5 12.5883 42.4117 0.5 27.5 0.5V5.5ZM49.5 27.5C49.5 39.6503 39.6503 49.5 27.5 49.5V54.5C42.4117 54.5 54.5 42.4117 54.5 27.5H49.5ZM27.5 49.5C15.3497 49.5 5.5 39.6503 5.5 27.5H0.5C0.5 42.4117 12.5883 54.5 27.5 54.5V49.5Z" fill="#0060D0"/>
</svg>
