<svg width="55" height="55" viewBox="0 0 55 55" fill="none" xmlns="http://www.w3.org/2000/svg">
<path d="M13.8889 27.5L12.1211 25.7322C11.6523 26.2011 11.3889 26.837 11.3889 27.5C11.3889 28.163 11.6523 28.7989 12.1211 29.2678L13.8889 27.5ZM41.1111 30C42.4918 30 43.6111 28.8807 43.6111 27.5C43.6111 26.1193 42.4918 25 41.1111 25L41.1111 30ZM26.5455 18.3789C27.5219 17.4026 27.5219 15.8197 26.5455 14.8433C25.5692 13.867 23.9863 13.867 23.01 14.8433L26.5455 18.3789ZM23.01 40.1567C23.9863 41.133 25.5692 41.133 26.5455 40.1567C27.5219 39.1803 27.5219 37.5974 26.5455 36.6211L23.01 40.1567ZM13.8889 30L41.1111 30L41.1111 25L13.8889 25L13.8889 30ZM23.01 14.8433C20.8838 16.9695 18.1616 19.6918 15.9709 21.8824C14.8756 22.9778 13.9131 23.9402 13.2245 24.6288C12.8802 24.9731 12.6044 25.249 12.4146 25.4388C12.3197 25.5337 12.2463 25.607 12.1967 25.6567C12.1719 25.6815 12.153 25.7004 12.1403 25.7131C12.1339 25.7194 12.1292 25.7242 12.1259 25.7274C12.1243 25.729 12.1231 25.7302 12.1223 25.731C12.1219 25.7314 12.1216 25.7317 12.1214 25.7319C12.1213 25.732 12.1212 25.7321 12.1212 25.7322C12.1211 25.7322 12.1211 25.7322 13.8889 27.5C15.6567 29.2678 15.6567 29.2677 15.6567 29.2677C15.6568 29.2676 15.6569 29.2676 15.657 29.2675C15.6572 29.2673 15.6575 29.267 15.6579 29.2666C15.6587 29.2657 15.6599 29.2645 15.6615 29.2629C15.6647 29.2597 15.6695 29.2549 15.6758 29.2486C15.6885 29.2359 15.7074 29.217 15.7322 29.1922C15.7819 29.1426 15.8552 29.0692 15.9501 28.9743C16.1399 28.7845 16.4157 28.5087 16.7601 28.1644C17.4487 27.4758 18.4111 26.5133 19.5065 25.418C21.6971 23.2273 24.4194 20.5051 26.5455 18.3789L23.01 14.8433ZM12.1211 29.2678L23.01 40.1567L26.5455 36.6211L15.6567 25.7322L12.1211 29.2678ZM49.5 27.5C49.5 39.6503 39.6503 49.5 27.5 49.5V54.5C42.4117 54.5 54.5 42.4117 54.5 27.5H49.5ZM27.5 49.5C15.3497 49.5 5.5 39.6503 5.5 27.5H0.5C0.5 42.4117 12.5883 54.5 27.5 54.5V49.5ZM5.5 27.5C5.5 15.3497 15.3497 5.5 27.5 5.5V0.5C12.5883 0.5 0.5 12.5883 0.5 27.5H5.5ZM27.5 5.5C39.6503 5.5 49.5 15.3497 49.5 27.5H54.5C54.5 12.5883 42.4117 0.5 27.5 0.5V5.5Z" fill="#0060D0"/>
</svg>
