<svg width="81" height="86" viewBox="0 0 81 86" fill="none" xmlns="http://www.w3.org/2000/svg">
<path d="M7.54158 36.0835V33.5835C6.16087 33.5835 5.04158 34.7028 5.04158 36.0835H7.54158ZM73.4582 36.0835H75.9582C75.9582 34.7028 74.839 33.5835 73.4582 33.5835V36.0835ZM73.4582 83.1669V85.6669C74.839 85.6669 75.9582 84.5476 75.9582 83.1669H73.4582ZM7.54158 83.1669H5.04158C5.04158 84.5476 6.16087 85.6669 7.54158 85.6669L7.54158 83.1669ZM49.9166 83.1669V85.6669C51.2973 85.6669 52.4166 84.5476 52.4166 83.1669H49.9166ZM31.0832 83.1669H28.5832C28.5832 84.5476 29.7025 85.6669 31.0832 85.6669V83.1669ZM2.83325 21.9585V19.4585C1.45254 19.4585 0.333252 20.5778 0.333252 21.9585H2.83325ZM78.1666 21.9585H80.6666C80.6666 20.5778 79.5473 19.4585 78.1666 19.4585V21.9585ZM78.1666 36.0835V38.5835C79.5473 38.5835 80.6666 37.4643 80.6666 36.0835H78.1666ZM2.83325 36.0835H0.333252C0.333252 37.4643 1.45254 38.5835 2.83325 38.5835L2.83325 36.0835ZM31.0832 21.9585V19.4585C29.7025 19.4585 28.5832 20.5778 28.5832 21.9585H31.0832ZM49.9166 21.9585H52.4166C52.4166 20.5778 51.2973 19.4585 49.9166 19.4585V21.9585ZM39.8686 21.2522L37.4538 20.605C37.2821 21.2455 37.3719 21.9279 37.7034 22.5021C38.0349 23.0763 38.5809 23.4953 39.2214 23.667L39.8686 21.2522ZM64.3337 7.12717L66.4988 5.87717L64.3337 7.12717ZM40.7933 21.2522L41.4405 23.667C42.0809 23.4953 42.627 23.0763 42.9584 22.5021C43.2899 21.9279 43.3797 21.2455 43.2081 20.605L40.7933 21.2522ZM16.3281 7.12717L14.1631 5.87717L16.3281 7.12717ZM7.54158 38.5835H73.4582V33.5835H7.54158V38.5835ZM70.9582 36.0835V83.1669H75.9582V36.0835H70.9582ZM73.4582 80.6669H7.54158V85.6669H73.4582V80.6669ZM10.0416 83.1669V36.0835H5.04158V83.1669H10.0416ZM31.0832 38.5835H49.9166V33.5835H31.0832V38.5835ZM47.4166 36.0835V83.1669H52.4166V36.0835H47.4166ZM49.9166 80.6669H31.0832V85.6669H49.9166V80.6669ZM33.5832 83.1669V36.0835H28.5832V83.1669H33.5832ZM2.83325 24.4585H78.1666V19.4585H2.83325V24.4585ZM75.6666 21.9585V36.0835H80.6666V21.9585H75.6666ZM78.1666 33.5835H2.83325V38.5835H78.1666V33.5835ZM5.33325 36.0835V21.9585H0.333252V36.0835H5.33325ZM31.0832 24.4585H49.9166V19.4585H31.0832V24.4585ZM47.4166 21.9585V36.0835H52.4166V21.9585H47.4166ZM33.5832 36.0835V21.9585H28.5832V36.0835H33.5832ZM42.2833 21.8994C43.4228 17.6478 47.4389 11.5049 51.9659 7.95128C54.23 6.17399 56.2817 5.315 57.8922 5.3169C59.2564 5.31851 60.7592 5.93579 62.1687 8.37717L66.4988 5.87717C64.377 2.20215 61.3792 0.321007 57.8981 0.316901C54.6631 0.313086 51.5247 1.9411 48.8785 4.01829C43.5849 8.17367 38.8997 15.2096 37.4538 20.605L42.2833 21.8994ZM62.1687 8.37717C63.5783 10.8188 63.3616 12.4291 62.6809 13.6114C61.8774 15.0072 60.1077 16.3546 57.4365 17.4267C52.0956 19.5705 44.7676 19.9769 40.5157 18.8374L39.2214 23.667C44.6174 25.1131 53.0535 24.5737 59.299 22.0669C62.421 20.8138 65.4 18.9097 67.0141 16.1061C68.751 13.0892 68.6206 9.55228 66.4988 5.87717L62.1687 8.37717ZM43.2081 20.605C41.7621 15.2096 37.0769 8.17367 31.7833 4.01829C29.1372 1.9411 25.9988 0.313086 22.7638 0.316901C19.2827 0.321007 16.2848 2.20215 14.1631 5.87717L18.4932 8.37717C19.9027 5.93579 21.4055 5.31851 22.7697 5.3169C24.3802 5.315 26.4319 6.17399 28.696 7.95128C33.223 11.5049 37.2391 17.6478 38.3785 21.8994L43.2081 20.605ZM14.1631 5.87717C12.0412 9.55228 11.9109 13.0892 13.6478 16.1061C15.2619 18.9097 18.2409 20.8138 21.3629 22.0669C27.6084 24.5737 36.0445 25.1131 41.4405 23.667L40.1462 18.8374C35.8942 19.9769 28.5663 19.5705 23.2254 17.4267C20.5542 16.3546 18.7845 15.0072 17.981 13.6114C17.3003 12.4291 17.0835 10.8188 18.4932 8.37717L14.1631 5.87717Z" fill="#F8F8F8"/>
</svg>
