<svg width="162" height="113" viewBox="0 0 162 113" fill="none" xmlns="http://www.w3.org/2000/svg">
<path fill-rule="evenodd" clip-rule="evenodd" d="M50.9421 0.266616C21.4977 1.37015 14.2801 2.81004 8.51998 8.73114C3.06423 14.3393 1.55535 20.9219 0.368234 44.2964C-0.123339 53.9828 -0.122829 59.1296 0.370274 68.6839C1.60124 92.5111 3.21109 99.0815 9.19512 104.699C12.6785 107.969 15.4392 109.272 20.8526 110.202C34.8625 112.606 75.715 113.689 109.071 112.539C140.344 111.461 147.448 110.17 153.198 104.521C157.499 100.297 158.865 96.8582 160.291 86.6723C163.38 64.6081 162.097 25.8461 157.928 15.2518C155.881 10.0511 150.602 5.03845 145.617 3.56249C141.988 2.48843 132.953 1.4047 122.329 0.769609C110.311 0.0511921 65.1747 -0.266862 50.9421 0.266616ZM86.1436 44.2913C104.075 54.6098 106.904 56.3956 106.138 56.9123C104.565 57.9737 65.2487 80.5393 64.9728 80.5393C64.8265 80.5393 64.7066 69.6792 64.7066 56.4058C64.7066 43.1324 64.8305 32.2723 64.9815 32.2723C65.1329 32.2723 74.6559 37.6807 86.1436 44.2913Z" fill="white"/>
</svg>
